<svg width="21" height="14" viewBox="0 0 21 14" fill="none" xmlns="http://www.w3.org/2000/svg">
<path d="M2.36217 14H14.9479C15.6199 14 16.144 13.8044 16.5201 13.4132C16.8963 13.027 17.0844 12.4453 17.0844 11.6679V8.62869C16.9339 8.65377 16.7433 8.66882 16.5126 8.67383C16.2819 8.67383 16.0688 8.65878 15.8732 8.62869V11.6153C15.8732 12.0014 15.7704 12.2948 15.5647 12.4954C15.3591 12.691 15.0708 12.7888 14.6996 12.7888H2.37722C2.00107 12.7888 1.7127 12.691 1.51209 12.4954C1.31148 12.2948 1.21118 11.9989 1.21118 11.6077V2.56529C1.21118 2.19416 1.30647 1.91331 1.49704 1.72273C1.68762 1.53215 1.96346 1.43686 2.32456 1.43686H3.91188C4.16264 1.43686 4.37328 1.47197 4.54379 1.54218C4.71933 1.61239 4.90238 1.72774 5.09296 1.88823L5.55185 2.2719C5.71234 2.40731 5.87032 2.51514 6.02579 2.59538C6.18126 2.67562 6.35178 2.7333 6.53735 2.7684C6.72291 2.80351 6.93856 2.82106 7.18431 2.82106H11.6454C11.6905 2.61042 11.7431 2.40982 11.8033 2.21924C11.8635 2.02364 11.9463 1.82053 12.0516 1.60989H7.50027C7.24449 1.60989 7.02884 1.57729 6.8533 1.51209C6.67777 1.44188 6.49472 1.32653 6.30414 1.16604L5.84524 0.789898C5.67974 0.649472 5.51925 0.539137 5.36378 0.458893C5.21333 0.378649 5.04532 0.320974 4.85975 0.285868C4.6792 0.250761 4.46606 0.233208 4.22031 0.233208H2.0763C1.41429 0.233208 0.90274 0.421279 0.541644 0.797421C0.180548 1.17356 0 1.74028 0 2.49758V11.6679C0 12.4453 0.195594 13.027 0.586781 13.4132C0.982984 13.8044 1.57478 14 2.36217 14ZM0.737238 5.57442H11.856C11.7858 5.39387 11.7281 5.20831 11.683 5.01773C11.6378 4.82715 11.6052 4.63407 11.5852 4.43847H0.737238V5.57442ZM16.4073 7.6432C16.9239 7.6432 17.4129 7.5429 17.8743 7.34229C18.3357 7.14168 18.7419 6.86584 19.093 6.51478C19.449 6.16371 19.7274 5.75748 19.928 5.29608C20.1286 4.83468 20.2289 4.34318 20.2289 3.8216C20.2289 3.295 20.1286 2.801 19.928 2.3396C19.7324 1.8782 19.4591 1.47197 19.108 1.1209C18.7569 0.769837 18.3507 0.496507 17.8893 0.300913C17.4279 0.100304 16.9339 0 16.4073 0C15.8857 0 15.3942 0.100304 14.9328 0.300913C14.4714 0.496507 14.0652 0.772345 13.7141 1.12843C13.3631 1.47949 13.0872 1.88572 12.8866 2.34713C12.686 2.80351 12.5857 3.295 12.5857 3.8216C12.5857 4.3482 12.686 4.8422 12.8866 5.3036C13.0872 5.765 13.3631 6.17123 13.7141 6.5223C14.0652 6.87337 14.4714 7.1492 14.9328 7.34981C15.3942 7.54541 15.8857 7.6432 16.4073 7.6432ZM16.4073 6.30414C16.2769 6.30414 16.1616 6.26151 16.0613 6.17625C15.966 6.09099 15.9183 5.97815 15.9183 5.83772V4.28049H14.4739C14.3486 4.28049 14.2407 4.23536 14.1505 4.14508C14.0602 4.05481 14.015 3.94698 14.015 3.8216C14.015 3.69622 14.0602 3.58839 14.1505 3.49812C14.2407 3.40283 14.3486 3.35519 14.4739 3.35519H15.9183V1.79796C15.9183 1.65753 15.966 1.5472 16.0613 1.46695C16.1616 1.38169 16.2769 1.33906 16.4073 1.33906C16.5377 1.33906 16.6505 1.38169 16.7458 1.46695C16.8461 1.5472 16.8963 1.65753 16.8963 1.79796V3.35519H18.3407C18.4661 3.35519 18.5739 3.40283 18.6642 3.49812C18.7544 3.58839 18.7996 3.69622 18.7996 3.8216C18.7996 3.94698 18.7544 4.05481 18.6642 4.14508C18.5739 4.23536 18.4661 4.28049 18.3407 4.28049H16.8963V5.83772C16.8963 5.97815 16.8461 6.09099 16.7458 6.17625C16.6505 6.26151 16.5377 6.30414 16.4073 6.30414Z" fill="#1E1E1E"/>
</svg>
