<svg width="20" height="20" viewBox="0 0 20 20" fill="none" xmlns="http://www.w3.org/2000/svg">
<path d="M9.16797 14.1667H10.8346V10.8333H14.168V9.16666H10.8346V5.83333H9.16797V9.16666H5.83464V10.8333H9.16797V14.1667ZM10.0013 18.3333C8.84852 18.3333 7.76519 18.1181 6.7513 17.6875C5.73741 17.2431 4.85547 16.6458 4.10547 15.8958C3.35547 15.1458 2.75825 14.2639 2.3138 13.25C1.88325 12.2361 1.66797 11.1528 1.66797 10C1.66797 8.84722 1.88325 7.76389 2.3138 6.75C2.75825 5.73611 3.35547 4.85416 4.10547 4.10416C4.85547 3.35416 5.73741 2.76389 6.7513 2.33333C7.76519 1.88889 8.84852 1.66666 10.0013 1.66666C11.1541 1.66666 12.2374 1.88889 13.2513 2.33333C14.2652 2.76389 15.1471 3.35416 15.8971 4.10416C16.6471 4.85416 17.2374 5.73611 17.668 6.75C18.1124 7.76389 18.3346 8.84722 18.3346 10C18.3346 11.1528 18.1124 12.2361 17.668 13.25C17.2374 14.2639 16.6471 15.1458 15.8971 15.8958C15.1471 16.6458 14.2652 17.2431 13.2513 17.6875C12.2374 18.1181 11.1541 18.3333 10.0013 18.3333ZM10.0013 16.6667C11.8624 16.6667 13.4388 16.0208 14.7305 14.7292C16.0221 13.4375 16.668 11.8611 16.668 10C16.668 8.13889 16.0221 6.5625 14.7305 5.27083C13.4388 3.97916 11.8624 3.33333 10.0013 3.33333C8.14019 3.33333 6.5638 3.97916 5.27214 5.27083C3.98047 6.5625 3.33464 8.13889 3.33464 10C3.33464 11.8611 3.98047 13.4375 5.27214 14.7292C6.5638 16.0208 8.14019 16.6667 10.0013 16.6667Z" fill="white"/>
</svg>
