<svg width="780" height="602" viewBox="0 0 780 602" fill="none" xmlns="http://www.w3.org/2000/svg">
<path d="M780 529.038H-28V529.442H780V529.038Z" fill="#EBEBEB"/>
<path d="M110.297 544.419H56.7754V544.823H110.297V544.419Z" fill="#EBEBEB"/>
<path d="M262.605 540.041H219.959V540.444H262.605V540.041Z" fill="#EBEBEB"/>
<path d="M191.598 553.951H117.392V554.355H191.598V553.951Z" fill="#EBEBEB"/>
<path d="M699.038 556.714H664.133V557.118H699.038V556.714Z" fill="#EBEBEB"/>
<path d="M656.279 556.714H604.616V557.118H656.279V556.714Z" fill="#EBEBEB"/>
<path d="M509.045 549.88H419.971V550.284H509.045V549.88Z" fill="#EBEBEB"/>
<path d="M355.008 456.981H42.9588C37.8684 456.981 33.7314 452.845 33.7314 447.756V9.22525C33.7314 4.13601 37.8684 0 42.9588 0H355.008C360.099 0 364.236 4.13601 364.236 9.22525V447.756C364.236 452.845 360.099 456.981 355.008 456.981ZM42.9588 0.403908C38.0946 0.403908 34.1354 4.3622 34.1354 9.22525V447.756C34.1354 452.619 38.0946 456.577 42.9588 456.577H355.008C359.873 456.577 363.832 452.619 363.832 447.756V9.22525C363.832 4.3622 359.873 0.403908 355.008 0.403908H42.9588Z" fill="#EBEBEB"/>
<path d="M704.549 456.981H392.499C387.409 456.981 383.272 452.845 383.272 447.756V9.22525C383.272 4.13601 387.409 0 392.499 0H704.549C709.639 0 713.776 4.13601 713.776 9.22525V447.756C713.776 452.845 709.639 456.981 704.549 456.981ZM392.499 0.403908C387.635 0.403908 383.676 4.3622 383.676 9.22525V447.756C383.676 452.619 387.635 456.577 392.499 456.577H704.549C709.413 456.577 713.372 452.619 713.372 447.756V9.22525C713.372 4.3622 709.413 0.403908 704.549 0.403908H392.499Z" fill="#EBEBEB"/>
<path d="M670.92 521.477H695.806V354.049H670.92V521.477Z" fill="#F0F0F0"/>
<path d="M417.725 529.038H691.007V521.493H417.725V529.038Z" fill="#F0F0F0"/>
<path d="M670.92 354.049H412.958V521.477H670.92V354.049Z" fill="#F5F5F5"/>
<path d="M673.506 354.049H698.941V347.457H673.506V354.049Z" fill="#F0F0F0"/>
<path d="M673.489 347.457H409.823V354.049H673.489V347.457Z" fill="#FAFAFA"/>
<path d="M662.145 433.409H421.732V367.685H662.145V433.409ZM423.752 431.373H660.092V369.721H423.752V431.373Z" fill="#E0E0E0"/>
<path d="M662.145 507.841H421.732V443.038H662.145V507.841ZM423.752 505.805H660.092V445.074H423.752V505.805Z" fill="#E0E0E0"/>
<path d="M469.405 380.804H614.441C615.911 380.804 617.123 379.592 617.123 378.122C617.123 376.652 615.911 375.44 614.441 375.44H469.405C467.934 375.44 466.722 376.652 466.722 378.122C466.722 379.592 467.934 380.804 469.405 380.804Z" fill="#E0E0E0"/>
<path d="M469.405 456.141H614.441C615.911 456.141 617.123 454.929 617.123 453.459C617.123 451.989 615.911 450.777 614.441 450.777H469.405C467.934 450.777 466.722 451.989 466.722 453.459C466.722 454.929 467.934 456.141 469.405 456.141Z" fill="#E0E0E0"/>
<path d="M200.842 328.231H159.084C144.217 328.231 130.804 338.927 127.298 353.565L116.26 399.626L93.5879 399.545H93.5232C82.7122 399.545 73.4364 407.22 71.4002 417.834L68.3783 433.603C63.8212 434.265 59.9105 437.739 58.7954 442.36H170.833C185.684 442.36 199.097 431.68 202.587 417.043L218.424 350.899C221.268 339.056 212.849 328.215 200.826 328.215L200.842 328.231ZM91.1316 433.506H74.3736L77.1855 418.965C78.6884 411.146 85.5564 405.459 93.5071 405.459H93.5717L114.838 405.523L112.156 416.752C109.829 426.429 100.973 433.506 91.1316 433.506Z" fill="#E6E6E6"/>
<path d="M168.021 442.376H172.804L191.63 529.038H186.847L168.021 442.376Z" fill="#E0E0E0"/>
<path d="M150.067 442.376H154.85L173.677 529.038H168.893L150.067 442.376Z" fill="#E0E0E0"/>
<path d="M79.5932 442.376H74.8098L55.9834 529.038H60.7668L79.5932 442.376Z" fill="#E0E0E0"/>
<path d="M97.5468 442.376H92.7634L73.937 529.038H78.7204L97.5468 442.376Z" fill="#E0E0E0"/>
<path d="M355.929 328.231H314.172C299.305 328.231 285.892 338.927 282.385 353.565L271.348 399.626L248.675 399.545H248.611C237.8 399.545 228.524 407.22 226.488 417.834L223.466 433.603C218.909 434.265 214.998 437.739 213.883 442.36H325.92C340.771 442.36 354.184 431.68 357.674 417.043L373.511 350.899C376.355 339.056 367.936 328.215 355.913 328.215L355.929 328.231ZM246.219 433.506H229.461L232.273 418.965C233.776 411.146 240.644 405.459 248.595 405.459H248.659L269.926 405.523L267.243 416.752C264.916 426.429 256.06 433.506 246.219 433.506Z" fill="#E6E6E6"/>
<path d="M323.108 442.376H327.907L346.734 529.038H341.95L323.108 442.376Z" fill="#E0E0E0"/>
<path d="M305.154 442.376H309.938L328.78 529.038H323.997L305.154 442.376Z" fill="#E0E0E0"/>
<path d="M234.697 442.376H229.913L211.087 529.038H215.87L234.697 442.376Z" fill="#E0E0E0"/>
<path d="M252.65 442.376H247.867L229.041 529.038H233.824L252.65 442.376Z" fill="#E0E0E0"/>
<path d="M554.002 347.393H632.055L638.39 277.824H560.337L554.002 347.393Z" fill="#E6E6E6"/>
<path d="M551.352 347.393H629.405L635.723 277.824H557.687L551.352 347.393Z" fill="#F0F0F0"/>
<path d="M622.392 339.702L627.32 285.53H564.684L559.755 339.702H622.392Z" fill="white"/>
<path d="M535.935 296.597L531.313 347.393H568.708L573.346 296.597H535.935Z" fill="#E6E6E6"/>
<path d="M533.996 296.597L529.375 347.393H566.785L571.407 296.597H533.996Z" fill="#F0F0F0"/>
<path d="M539.119 302.22L535.515 341.77H561.662L565.266 302.22H539.119Z" fill="white"/>
<path d="M376 602C549.045 602 689.326 593.812 689.326 583.711C689.326 573.61 549.045 565.422 376 565.422C202.955 565.422 62.6738 573.61 62.6738 583.711C62.6738 593.812 202.955 602 376 602Z" fill="#F5F5F5"/>
<path d="M630.697 415.976H204.995C194.377 415.976 186.104 407.284 186.621 396.67L202.522 71.8794C203.039 61.2647 212.153 52.5726 222.787 52.5726H648.49C659.107 52.5726 667.381 61.2647 666.863 71.8794L650.962 396.67C650.445 407.284 641.331 415.976 630.697 415.976Z" fill="#407BFF"/>
<path opacity="0.7" d="M630.697 415.976H204.995C194.377 415.976 186.104 407.284 186.621 396.67L202.522 71.8794C203.039 61.2647 212.153 52.5726 222.787 52.5726H648.49C659.107 52.5726 667.381 61.2647 666.863 71.8794L650.962 396.67C650.445 407.284 641.331 415.976 630.697 415.976Z" fill="white"/>
<path d="M664.973 55.9654C662.71 53.4774 659.85 51.5224 656.715 50.3107L657.297 48.8082C660.674 50.1007 663.744 52.201 666.168 54.883L664.973 55.9654Z" fill="#407BFF"/>
<path d="M648.699 47.241H614.667V48.8567H648.699V47.241Z" fill="#407BFF"/>
<path d="M648.489 52.5564H222.787C212.17 52.5564 203.039 61.2485 202.522 71.8632H666.847C667.364 61.2485 659.107 52.5564 648.473 52.5564H648.489Z" fill="#375DED"/>
<path d="M199.63 394.085L214.319 93.7712C214.561 88.795 218.795 84.756 223.789 84.756H644.32C649.298 84.756 653.144 88.795 652.901 93.7712L638.212 394.085C637.97 399.061 633.736 403.1 628.742 403.1H208.21C203.233 403.1 199.387 399.061 199.63 394.085Z" fill="white"/>
<path opacity="0.3" d="M259.292 187.72H239.965C238.155 187.72 236.765 186.25 236.846 184.44L238.51 150.464C238.591 148.654 240.142 147.184 241.952 147.184H261.28C263.089 147.184 264.479 148.654 264.398 150.464L262.734 184.44C262.653 186.25 261.102 187.72 259.292 187.72Z" fill="#407BFF"/>
<path opacity="0.3" d="M298.108 187.72H278.781C276.971 187.72 275.581 186.25 275.662 184.44L277.617 144.373C277.698 142.563 279.25 141.093 281.059 141.093H300.387C302.197 141.093 303.587 142.563 303.506 144.373L301.55 184.44C301.47 186.25 299.918 187.72 298.108 187.72Z" fill="#407BFF"/>
<path opacity="0.3" d="M336.925 187.72H317.597C315.787 187.72 314.398 186.25 314.478 184.44L316.644 140.188C316.725 138.379 318.276 136.909 320.086 136.909H339.413C341.223 136.909 342.613 138.379 342.532 140.188L340.367 184.44C340.286 186.25 338.735 187.72 336.925 187.72Z" fill="#407BFF"/>
<path opacity="0.3" d="M375.757 187.72H356.43C354.62 187.72 353.23 186.25 353.311 184.44L355.67 136.375C355.751 134.566 357.302 133.096 359.112 133.096H378.44C380.25 133.096 381.639 134.566 381.559 136.375L379.199 184.44C379.118 186.25 377.567 187.72 375.757 187.72Z" fill="#407BFF"/>
<path d="M414.573 187.72H395.246C393.436 187.72 392.046 186.25 392.127 184.44L395.197 121.738C395.278 119.928 396.829 118.458 398.639 118.458H417.967C419.777 118.458 421.166 119.928 421.086 121.738L418.015 184.44C417.934 186.25 416.383 187.72 414.573 187.72Z" fill="#375DED"/>
<path d="M409.515 111.818L411.357 108.877C411.794 108.183 411.293 107.278 410.469 107.278H407.059C406.267 107.278 405.766 108.118 406.138 108.813L407.689 111.753C408.061 112.464 409.079 112.496 409.499 111.818H409.515Z" fill="#263238"/>
<path opacity="0.3" d="M453.39 187.72H434.062C432.252 187.72 430.862 186.25 430.943 184.44L433.529 131.625C433.61 129.816 435.161 128.346 436.971 128.346H456.298C458.108 128.346 459.498 129.816 459.417 131.625L456.832 184.44C456.751 186.25 455.199 187.72 453.39 187.72Z" fill="#407BFF"/>
<path opacity="0.1" d="M455.087 198.254H237.234C236.636 198.254 236.183 197.769 236.215 197.188C236.248 196.59 236.749 196.121 237.347 196.121H455.2C455.798 196.121 456.25 196.606 456.218 197.188C456.185 197.785 455.684 198.254 455.087 198.254Z" fill="#263238"/>
<path opacity="0.1" d="M470.6 387.154L484.611 100.702C484.643 100.137 485.128 99.6844 485.678 99.6844H485.775C486.34 99.6844 486.776 100.137 486.744 100.702L472.733 387.154C472.701 387.719 472.216 388.171 471.667 388.171H471.57C471.004 388.171 470.568 387.719 470.6 387.154Z" fill="#263238"/>
<path d="M542.528 154.034C541.025 162.274 542.577 170.223 546.407 176.701L536.808 182.615C531.572 173.696 529.746 163.049 531.653 152.58C535.579 131.044 554.47 114.516 576.238 113.595L576.173 124.614C559.981 125.276 545.55 137.442 542.528 154.034Z" fill="#375DED"/>
<path opacity="0.3" d="M618.351 141.368L607.944 145.568C604.001 134.744 594.418 126.536 582.056 124.888C580.084 124.63 578.113 124.533 576.173 124.614L576.238 113.595C578.872 113.482 581.474 113.595 584.043 113.95C599.848 116.067 612.953 126.536 618.335 141.368H618.351Z" fill="#407BFF"/>
<path d="M620.242 164.455C615.782 188.916 592.123 206.348 567.819 203.101C554.745 201.356 543.369 193.859 536.808 182.631L546.407 176.718C551.206 184.893 559.545 190.79 569.806 192.163C588.261 194.635 605.972 181.581 609.366 163.001C610.481 156.862 609.899 150.9 607.944 145.584L618.351 141.384C621.017 148.686 621.664 156.635 620.242 164.455Z" fill="#263238"/>
<path d="M542.254 120.801C542.044 120.801 541.833 120.72 541.672 120.542L534.497 112.997H509.901C509.449 112.997 509.093 112.642 509.093 112.189C509.093 111.737 509.449 111.382 509.901 111.382H534.836C535.062 111.382 535.272 111.478 535.418 111.64L542.835 119.427C543.142 119.751 543.126 120.268 542.803 120.574C542.641 120.72 542.448 120.801 542.254 120.801Z" fill="#263238"/>
<path d="M515.073 362.644H506.88C504.617 362.644 502.678 364.502 502.565 366.764L502.161 374.956C502.048 377.217 503.809 379.075 506.072 379.075H514.265C516.527 379.075 518.466 377.217 518.579 374.956L518.983 366.764C519.097 364.502 517.335 362.644 515.073 362.644Z" fill="#375DED"/>
<path d="M560.935 362.644H552.742C550.48 362.644 548.524 364.502 548.427 366.764L548.023 374.956C547.91 377.217 549.672 379.075 551.934 379.075H560.127C562.389 379.075 564.329 377.217 564.442 374.956L564.846 366.764C564.959 364.502 563.197 362.644 560.935 362.644Z" fill="#263238"/>
<path opacity="0.3" d="M606.813 362.644H598.62C596.357 362.644 594.402 364.502 594.305 366.764L593.901 374.956C593.788 377.217 595.549 379.075 597.812 379.075H606.005C608.267 379.075 610.223 377.217 610.32 374.956L610.724 366.764C610.837 364.502 609.075 362.644 606.813 362.644Z" fill="#407BFF"/>
<path d="M250.31 258.339V257.65L252.895 254.82C253.199 254.488 253.449 254.2 253.645 253.956C253.841 253.708 253.987 253.476 254.081 253.26C254.178 253.04 254.226 252.811 254.226 252.571C254.226 252.296 254.16 252.057 254.027 251.856C253.897 251.654 253.719 251.499 253.492 251.389C253.265 251.28 253.01 251.225 252.727 251.225C252.426 251.225 252.163 251.287 251.939 251.412C251.717 251.535 251.545 251.707 251.423 251.929C251.303 252.15 251.243 252.41 251.243 252.709H250.34C250.34 252.25 250.446 251.847 250.658 251.5C250.869 251.153 251.158 250.883 251.522 250.689C251.889 250.496 252.301 250.399 252.758 250.399C253.217 250.399 253.623 250.496 253.978 250.689C254.332 250.883 254.61 251.145 254.811 251.473C255.013 251.802 255.113 252.168 255.113 252.571C255.113 252.859 255.061 253.141 254.957 253.416C254.855 253.689 254.676 253.994 254.421 254.33C254.169 254.664 253.818 255.072 253.369 255.554L251.61 257.436V257.497H255.251V258.339H250.31ZM259.278 258.446C258.83 258.446 258.426 258.356 258.066 258.178C257.707 257.999 257.418 257.755 257.202 257.444C256.985 257.133 256.866 256.778 256.846 256.38H257.764C257.8 256.735 257.96 257.028 258.246 257.26C258.534 257.49 258.878 257.604 259.278 257.604C259.6 257.604 259.885 257.529 260.135 257.379C260.388 257.228 260.585 257.022 260.728 256.759C260.873 256.494 260.946 256.194 260.946 255.86C260.946 255.519 260.871 255.214 260.72 254.946C260.572 254.676 260.368 254.463 260.108 254.307C259.848 254.152 259.551 254.073 259.217 254.07C258.978 254.068 258.732 254.105 258.479 254.181C258.227 254.255 258.019 254.351 257.856 254.468L256.968 254.361L257.443 250.506H261.512V251.347H258.238L257.963 253.657H258.009C258.169 253.53 258.371 253.424 258.613 253.34C258.855 253.256 259.108 253.214 259.37 253.214C259.85 253.214 260.277 253.328 260.651 253.558C261.029 253.785 261.325 254.096 261.539 254.491C261.756 254.886 261.864 255.338 261.864 255.845C261.864 256.345 261.752 256.791 261.527 257.184C261.305 257.574 261 257.882 260.609 258.109C260.219 258.333 259.776 258.446 259.278 258.446ZM263.762 258.4C263.573 258.4 263.411 258.332 263.276 258.197C263.141 258.062 263.073 257.9 263.073 257.711C263.073 257.523 263.141 257.361 263.276 257.226C263.411 257.09 263.573 257.023 263.762 257.023C263.95 257.023 264.112 257.09 264.248 257.226C264.383 257.361 264.45 257.523 264.45 257.711C264.45 257.836 264.418 257.951 264.355 258.056C264.293 258.16 264.211 258.244 264.106 258.308C264.004 258.369 263.889 258.4 263.762 258.4ZM268.345 258.446C267.896 258.446 267.492 258.356 267.132 258.178C266.773 257.999 266.485 257.755 266.268 257.444C266.051 257.133 265.933 256.778 265.912 256.38H266.83C266.866 256.735 267.026 257.028 267.312 257.26C267.6 257.49 267.944 257.604 268.345 257.604C268.666 257.604 268.951 257.529 269.201 257.379C269.454 257.228 269.651 257.022 269.794 256.759C269.939 256.494 270.012 256.194 270.012 255.86C270.012 255.519 269.937 255.214 269.786 254.946C269.639 254.676 269.435 254.463 269.175 254.307C268.914 254.152 268.617 254.073 268.283 254.07C268.044 254.068 267.798 254.105 267.545 254.181C267.293 254.255 267.085 254.351 266.922 254.468L266.035 254.361L266.509 250.506H270.578V251.347H267.304L267.029 253.657H267.075C267.235 253.53 267.437 253.424 267.679 253.34C267.921 253.256 268.174 253.214 268.436 253.214C268.916 253.214 269.343 253.328 269.718 253.558C270.095 253.785 270.391 254.096 270.605 254.491C270.822 254.886 270.93 255.338 270.93 255.845C270.93 256.345 270.818 256.791 270.593 257.184C270.372 257.574 270.066 257.882 269.676 258.109C269.285 258.333 268.842 258.446 268.345 258.446ZM272.266 256.732V255.952L275.708 250.506H276.274V251.714H275.891L273.291 255.83V255.891H277.926V256.732H272.266ZM275.953 258.339V256.495V256.132V250.506H276.855V258.339H275.953ZM281.751 257.359V257.084C281.751 256.894 281.79 256.719 281.868 256.561C281.948 256.402 282.064 256.274 282.215 256.179C282.368 256.082 282.553 256.034 282.771 256.034C282.992 256.034 283.177 256.082 283.327 256.179C283.476 256.274 283.589 256.402 283.666 256.561C283.742 256.719 283.781 256.894 283.781 257.084V257.359C283.781 257.55 283.741 257.725 283.663 257.885C283.587 258.043 283.473 258.17 283.322 258.267C283.172 258.362 282.988 258.41 282.771 258.41C282.55 258.41 282.364 258.362 282.213 258.267C282.061 258.17 281.946 258.043 281.868 257.885C281.79 257.725 281.751 257.55 281.751 257.359ZM282.271 257.084V257.359C282.271 257.518 282.309 257.659 282.383 257.785C282.458 257.909 282.587 257.971 282.771 257.971C282.949 257.971 283.075 257.909 283.148 257.785C283.223 257.659 283.26 257.518 283.26 257.359V257.084C283.26 256.926 283.225 256.785 283.153 256.661C283.082 256.535 282.954 256.472 282.771 256.472C282.592 256.472 282.464 256.535 282.386 256.661C282.309 256.785 282.271 256.926 282.271 257.084ZM279.15 254.371V254.096C279.15 253.905 279.189 253.731 279.268 253.573C279.347 253.413 279.463 253.286 279.614 253.191C279.767 253.094 279.953 253.045 280.17 253.045C280.391 253.045 280.576 253.094 280.726 253.191C280.876 253.286 280.989 253.413 281.065 253.573C281.142 253.731 281.18 253.905 281.18 254.096V254.371C281.18 254.562 281.141 254.737 281.063 254.896C280.986 255.055 280.872 255.182 280.721 255.279C280.571 255.374 280.388 255.422 280.17 255.422C279.949 255.422 279.763 255.374 279.612 255.279C279.461 255.182 279.346 255.055 279.268 254.896C279.189 254.737 279.15 254.562 279.15 254.371ZM279.67 254.096V254.371C279.67 254.529 279.708 254.671 279.783 254.797C279.857 254.921 279.987 254.983 280.17 254.983C280.349 254.983 280.474 254.921 280.548 254.797C280.622 254.671 280.66 254.529 280.66 254.371V254.096C280.66 253.938 280.624 253.797 280.553 253.673C280.481 253.547 280.354 253.484 280.17 253.484C279.992 253.484 279.863 253.547 279.785 253.673C279.709 253.797 279.67 253.938 279.67 254.096ZM279.344 258.339L282.934 253.117H283.515L279.925 258.339H279.344Z" fill="#263238"/>
<path d="M320.652 290.539C320.652 290.539 320.522 290.539 320.458 290.523C320.021 290.426 319.763 289.99 319.86 289.553C325.322 266.579 336.908 243.072 350.483 242.312C359.597 241.811 364.801 249.421 370.844 258.226C375.192 264.576 380.12 271.765 387.344 277.178C392.321 280.91 397.411 281.879 402.437 280.07C413.668 276.014 424.415 257.758 430.491 232.408C430.588 231.972 431.024 231.698 431.461 231.811C431.897 231.908 432.156 232.344 432.059 232.78C425.772 259.05 414.897 277.291 402.971 281.588C397.395 283.608 391.804 282.558 386.358 278.47C378.924 272.896 373.915 265.577 369.487 259.131C363.476 250.374 358.757 243.476 350.548 243.912C337.797 244.623 326.728 267.532 321.395 289.925C321.314 290.296 320.975 290.539 320.603 290.539H320.652Z" fill="#375DED"/>
<path opacity="0.1" d="M439.024 301.735H243.245C239.803 301.735 236.62 300.394 234.293 297.938C231.949 295.483 230.754 292.235 230.931 288.794L233.727 231.811C234.066 224.718 240.126 218.934 247.237 218.934H443.015C446.457 218.934 449.641 220.291 451.968 222.731C454.311 225.187 455.507 228.434 455.329 231.875L452.533 288.859C452.194 295.951 446.134 301.735 439.024 301.735ZM247.221 220.55C240.967 220.55 235.634 225.639 235.327 231.875L232.531 288.859C232.386 291.864 233.42 294.691 235.456 296.807C237.476 298.94 240.24 300.103 243.245 300.103H439.024C445.278 300.103 450.61 295.014 450.917 288.778L453.713 231.794C453.859 228.789 452.824 225.978 450.788 223.846C448.768 221.713 446.005 220.55 442.999 220.55H247.221Z" fill="#263238"/>
<path d="M256.9 283.123H248.691L248.287 291.347H256.496L256.9 283.123Z" fill="#375DED"/>
<path opacity="0.1" d="M617.182 286H499.417C497.347 286 495.432 285.563 494.032 284.762C492.623 283.961 491.903 282.902 492.01 281.78L493.692 263.199C493.896 260.886 497.541 259 501.818 259H619.583C621.653 259 623.568 259.443 624.968 260.238C626.377 261.039 627.097 262.098 626.99 263.22L625.308 281.801C625.104 284.114 621.459 286 617.182 286ZM501.809 259.527C498.047 259.527 494.839 261.186 494.654 263.22L492.973 281.801C492.885 282.781 493.507 283.703 494.732 284.393C495.947 285.089 497.609 285.468 499.417 285.468H617.182C620.943 285.468 624.151 283.808 624.336 281.775L626.018 263.194C626.105 262.214 625.483 261.297 624.258 260.602C623.043 259.906 621.381 259.527 619.573 259.527H501.809Z" fill="#263238"/>
<path opacity="0.1" d="M617.182 329H499.417C497.347 329 495.432 328.563 494.032 327.762C492.623 326.961 491.903 325.902 492.01 324.78L493.692 306.199C493.896 303.886 497.541 302 501.818 302H619.583C621.653 302 623.568 302.443 624.968 303.238C626.377 304.039 627.097 305.098 626.99 306.22L625.308 324.801C625.104 327.114 621.459 329 617.182 329ZM501.809 302.527C498.047 302.527 494.839 304.186 494.654 306.22L492.973 324.801C492.885 325.781 493.507 326.703 494.732 327.393C495.947 328.089 497.609 328.468 499.417 328.468H617.182C620.943 328.468 624.151 326.808 624.336 324.775L626.018 306.194C626.105 305.214 625.483 304.297 624.258 303.602C623.043 302.906 621.381 302.527 619.573 302.527H501.809Z" fill="#263238"/>
<path opacity="0.3" d="M265.902 388.107H249.144C246.057 388.107 243.666 385.586 243.811 382.5L244.635 365.746C244.781 362.661 247.431 360.14 250.517 360.14H267.275C270.362 360.14 272.754 362.661 272.608 365.746L271.784 382.5C271.639 385.586 268.988 388.107 265.902 388.107Z" fill="#407BFF"/>
<path opacity="0.1" d="M330.137 378.962H286.958C285.665 378.962 284.469 378.461 283.597 377.524C282.724 376.603 282.272 375.376 282.336 374.083C282.465 371.433 284.728 369.285 287.362 369.285H330.541C331.834 369.285 333.03 369.785 333.903 370.723C334.775 371.643 335.228 372.871 335.163 374.164C335.034 376.813 332.772 378.962 330.137 378.962ZM287.346 370.916C285.552 370.916 284.017 372.37 283.936 374.18C283.888 375.02 284.195 375.828 284.76 376.426C285.326 377.023 286.118 377.363 286.958 377.363H330.137C331.931 377.363 333.466 375.909 333.547 374.115C333.596 373.259 333.305 372.467 332.723 371.87C332.157 371.272 331.366 370.933 330.525 370.933H287.346V370.916Z" fill="#263238"/>
<path d="M258.016 378.962H257.983C257.531 378.946 257.191 378.558 257.208 378.122L257.563 370.965C257.579 370.512 257.951 370.125 258.403 370.205C258.856 370.222 259.195 370.609 259.179 371.046L258.824 378.203C258.807 378.639 258.452 378.978 258.016 378.978V378.962Z" fill="#375DED"/>
<path d="M254.945 374.212C254.735 374.212 254.525 374.131 254.364 373.954C254.057 373.631 254.073 373.114 254.396 372.807L257.854 369.511C258.016 369.365 258.21 369.285 258.436 369.285C258.646 369.285 258.856 369.382 259.002 369.543L262.137 372.839C262.444 373.162 262.427 373.679 262.104 373.986C261.781 374.293 261.264 374.277 260.957 373.954L258.371 371.24L255.495 373.986C255.333 374.131 255.139 374.212 254.929 374.212H254.945Z" fill="#375DED"/>
<path d="M248.936 334.428V324.637H249.563V334.428H248.936ZM251.047 327.575C251.001 327.187 250.815 326.886 250.489 326.672C250.162 326.458 249.762 326.351 249.288 326.351C248.941 326.351 248.637 326.407 248.377 326.519C248.12 326.631 247.918 326.786 247.773 326.982C247.63 327.178 247.559 327.401 247.559 327.651C247.559 327.86 247.609 328.04 247.708 328.19C247.81 328.338 247.94 328.462 248.098 328.561C248.256 328.658 248.422 328.739 248.595 328.802C248.769 328.864 248.928 328.913 249.073 328.952L249.869 329.166C250.073 329.219 250.3 329.293 250.55 329.388C250.802 329.482 251.043 329.611 251.273 329.774C251.505 329.934 251.696 330.141 251.846 330.393C251.997 330.646 252.072 330.956 252.072 331.323C252.072 331.746 251.961 332.128 251.739 332.47C251.52 332.812 251.199 333.083 250.775 333.285C250.355 333.486 249.843 333.587 249.242 333.587C248.681 333.587 248.195 333.496 247.785 333.315C247.377 333.134 247.055 332.882 246.821 332.558C246.589 332.234 246.457 331.858 246.427 331.43H247.406C247.431 331.726 247.531 331.97 247.704 332.164C247.88 332.355 248.102 332.498 248.37 332.593C248.64 332.684 248.931 332.73 249.242 332.73C249.604 332.73 249.929 332.672 250.217 332.554C250.505 332.434 250.733 332.269 250.902 332.057C251.07 331.843 251.154 331.593 251.154 331.307C251.154 331.047 251.081 330.836 250.936 330.673C250.791 330.509 250.599 330.377 250.362 330.275C250.125 330.173 249.869 330.084 249.594 330.007L248.63 329.732C248.018 329.556 247.533 329.305 247.176 328.978C246.82 328.652 246.641 328.225 246.641 327.697C246.641 327.259 246.76 326.876 246.997 326.55C247.236 326.221 247.558 325.966 247.961 325.785C248.366 325.601 248.819 325.509 249.318 325.509C249.823 325.509 250.272 325.6 250.665 325.781C251.057 325.959 251.368 326.204 251.598 326.515C251.83 326.826 251.952 327.179 251.965 327.575H251.047ZM256.14 333.556C255.635 333.556 255.185 333.47 254.79 333.296C254.398 333.123 254.085 332.882 253.853 332.573C253.624 332.262 253.499 331.902 253.478 331.491H254.442C254.463 331.743 254.549 331.961 254.702 332.145C254.855 332.326 255.055 332.466 255.303 332.566C255.55 332.665 255.824 332.715 256.125 332.715C256.462 332.715 256.76 332.656 257.02 332.539C257.28 332.422 257.484 332.259 257.632 332.049C257.78 331.84 257.854 331.598 257.854 331.323C257.854 331.035 257.782 330.781 257.64 330.562C257.497 330.34 257.288 330.166 257.012 330.042C256.737 329.917 256.4 329.854 256.003 329.854H255.375V329.013H256.003C256.314 329.013 256.587 328.957 256.821 328.844C257.058 328.732 257.243 328.574 257.376 328.37C257.511 328.166 257.578 327.927 257.578 327.651C257.578 327.386 257.52 327.155 257.402 326.959C257.285 326.763 257.119 326.61 256.905 326.5C256.694 326.39 256.444 326.336 256.156 326.336C255.885 326.336 255.63 326.385 255.391 326.485C255.154 326.582 254.96 326.723 254.809 326.909C254.659 327.093 254.577 327.315 254.565 327.575H253.647C253.662 327.164 253.786 326.805 254.018 326.496C254.25 326.185 254.553 325.943 254.928 325.769C255.305 325.596 255.72 325.509 256.171 325.509C256.655 325.509 257.071 325.608 257.418 325.804C257.765 325.998 258.031 326.254 258.217 326.573C258.403 326.891 258.496 327.236 258.496 327.605C258.496 328.046 258.38 328.422 258.148 328.734C257.919 329.045 257.606 329.26 257.211 329.38V329.441C257.706 329.523 258.092 329.733 258.37 330.072C258.648 330.409 258.787 330.826 258.787 331.323C258.787 331.749 258.671 332.131 258.439 332.47C258.209 332.807 257.896 333.072 257.498 333.266C257.1 333.459 256.648 333.556 256.14 333.556ZM260.351 333.449V332.761L262.937 329.931C263.24 329.599 263.49 329.311 263.686 329.066C263.883 328.819 264.028 328.587 264.122 328.37C264.219 328.151 264.268 327.921 264.268 327.682C264.268 327.406 264.201 327.168 264.069 326.967C263.939 326.765 263.76 326.61 263.533 326.5C263.306 326.39 263.051 326.336 262.768 326.336C262.467 326.336 262.205 326.398 261.98 326.523C261.759 326.645 261.587 326.817 261.464 327.039C261.344 327.261 261.284 327.521 261.284 327.819H260.382C260.382 327.36 260.488 326.958 260.699 326.611C260.911 326.264 261.199 325.994 261.564 325.8C261.931 325.606 262.343 325.509 262.799 325.509C263.258 325.509 263.665 325.606 264.019 325.8C264.373 325.994 264.651 326.255 264.853 326.584C265.054 326.913 265.155 327.279 265.155 327.682C265.155 327.97 265.103 328.252 264.998 328.527C264.896 328.8 264.718 329.105 264.463 329.441C264.21 329.775 263.86 330.183 263.411 330.665L261.652 332.547V332.608H265.293V333.449H260.351ZM269.519 333.556C269.014 333.556 268.564 333.47 268.169 333.296C267.776 333.123 267.464 332.882 267.232 332.573C267.002 332.262 266.877 331.902 266.857 331.491H267.821C267.841 331.743 267.928 331.961 268.081 332.145C268.234 332.326 268.434 332.466 268.681 332.566C268.928 332.665 269.203 332.715 269.503 332.715C269.84 332.715 270.138 332.656 270.398 332.539C270.658 332.422 270.862 332.259 271.01 332.049C271.158 331.84 271.232 331.598 271.232 331.323C271.232 331.035 271.161 330.781 271.018 330.562C270.875 330.34 270.666 330.166 270.391 330.042C270.115 329.917 269.779 329.854 269.381 329.854H268.754V329.013H269.381C269.692 329.013 269.965 328.957 270.199 328.844C270.437 328.732 270.621 328.574 270.754 328.37C270.889 328.166 270.957 327.927 270.957 327.651C270.957 327.386 270.898 327.155 270.781 326.959C270.664 326.763 270.498 326.61 270.284 326.5C270.072 326.39 269.822 326.336 269.534 326.336C269.264 326.336 269.009 326.385 268.769 326.485C268.532 326.582 268.338 326.723 268.188 326.909C268.037 327.093 267.956 327.315 267.943 327.575H267.025C267.04 327.164 267.164 326.805 267.396 326.496C267.628 326.185 267.931 325.943 268.306 325.769C268.684 325.596 269.098 325.509 269.549 325.509C270.034 325.509 270.449 325.608 270.796 325.804C271.143 325.998 271.409 326.254 271.595 326.573C271.782 326.891 271.875 327.236 271.875 327.605C271.875 328.046 271.759 328.422 271.527 328.734C271.297 329.045 270.985 329.26 270.59 329.38V329.441C271.084 329.523 271.471 329.733 271.748 330.072C272.026 330.409 272.165 330.826 272.165 331.323C272.165 331.749 272.049 332.131 271.817 332.47C271.588 332.807 271.274 333.072 270.876 333.266C270.479 333.459 270.026 333.556 269.519 333.556ZM274.849 332.378L274.788 332.791C274.745 333.082 274.678 333.393 274.589 333.725C274.502 334.056 274.412 334.368 274.318 334.662C274.223 334.955 274.145 335.188 274.084 335.362H273.396C273.429 335.198 273.472 334.983 273.526 334.715C273.579 334.447 273.633 334.148 273.687 333.816C273.743 333.487 273.789 333.151 273.824 332.807L273.87 332.378H274.849ZM278.788 333.556C278.211 333.556 277.72 333.399 277.315 333.086C276.91 332.77 276.6 332.312 276.386 331.713C276.172 331.111 276.064 330.384 276.064 329.533C276.064 328.686 276.172 327.964 276.386 327.364C276.602 326.763 276.914 326.304 277.319 325.987C277.727 325.669 278.216 325.509 278.788 325.509C279.359 325.509 279.847 325.669 280.252 325.987C280.66 326.304 280.971 326.763 281.186 327.364C281.402 327.964 281.511 328.686 281.511 329.533C281.511 330.384 281.404 331.111 281.189 331.713C280.975 332.312 280.665 332.77 280.26 333.086C279.855 333.399 279.364 333.556 278.788 333.556ZM278.788 332.715C279.359 332.715 279.802 332.44 280.119 331.889C280.435 331.338 280.593 330.553 280.593 329.533C280.593 328.855 280.52 328.277 280.375 327.8C280.232 327.324 280.025 326.96 279.755 326.71C279.487 326.46 279.165 326.336 278.788 326.336C278.222 326.336 277.779 326.615 277.46 327.173C277.142 327.729 276.982 328.516 276.982 329.533C276.982 330.211 277.054 330.787 277.197 331.262C277.339 331.736 277.545 332.097 277.812 332.344C278.083 332.591 278.408 332.715 278.788 332.715ZM282.998 333.449L286.502 326.519V326.458H282.463V325.616H287.481V326.504L283.993 333.449H282.998ZM291.258 333.556C290.732 333.556 290.268 333.463 289.865 333.277C289.465 333.088 289.153 332.83 288.928 332.501C288.704 332.169 288.593 331.792 288.596 331.369C288.593 331.037 288.658 330.731 288.791 330.451C288.923 330.168 289.104 329.932 289.334 329.743C289.566 329.552 289.825 329.431 290.11 329.38V329.334C289.735 329.237 289.437 329.027 289.215 328.703C288.993 328.377 288.884 328.006 288.886 327.59C288.884 327.192 288.985 326.837 289.188 326.523C289.392 326.209 289.673 325.962 290.03 325.781C290.389 325.6 290.799 325.509 291.258 325.509C291.711 325.509 292.117 325.6 292.474 325.781C292.831 325.962 293.111 326.209 293.315 326.523C293.522 326.837 293.626 327.192 293.629 327.59C293.626 328.006 293.513 328.377 293.288 328.703C293.067 329.027 292.772 329.237 292.405 329.334V329.38C292.688 329.431 292.943 329.552 293.17 329.743C293.397 329.932 293.578 330.168 293.713 330.451C293.848 330.731 293.917 331.037 293.919 331.369C293.917 331.792 293.802 332.169 293.575 332.501C293.351 332.83 293.039 333.088 292.638 333.277C292.24 333.463 291.78 333.556 291.258 333.556ZM291.258 332.715C291.612 332.715 291.918 332.658 292.175 332.543C292.433 332.428 292.632 332.266 292.772 332.057C292.912 331.848 292.984 331.603 292.986 331.323C292.984 331.027 292.907 330.766 292.757 330.539C292.606 330.312 292.401 330.133 292.141 330.003C291.884 329.873 291.589 329.808 291.258 329.808C290.924 329.808 290.625 329.873 290.363 330.003C290.103 330.133 289.897 330.312 289.747 330.539C289.599 330.766 289.526 331.027 289.529 331.323C289.526 331.603 289.594 331.848 289.732 332.057C289.872 332.266 290.072 332.428 290.332 332.543C290.592 332.658 290.901 332.715 291.258 332.715ZM291.258 328.997C291.538 328.997 291.787 328.941 292.003 328.829C292.223 328.717 292.395 328.56 292.52 328.359C292.645 328.157 292.708 327.921 292.711 327.651C292.708 327.386 292.646 327.155 292.524 326.959C292.401 326.76 292.232 326.607 292.015 326.5C291.798 326.39 291.546 326.336 291.258 326.336C290.964 326.336 290.708 326.39 290.489 326.5C290.27 326.607 290.1 326.76 289.98 326.959C289.86 327.155 289.802 327.386 289.804 327.651C289.802 327.921 289.862 328.157 289.984 328.359C290.109 328.56 290.281 328.717 290.5 328.829C290.72 328.941 290.972 328.997 291.258 328.997ZM295.816 333.51C295.628 333.51 295.466 333.443 295.331 333.308C295.196 333.173 295.128 333.011 295.128 332.822C295.128 332.633 295.196 332.471 295.331 332.336C295.466 332.201 295.628 332.134 295.816 332.134C296.005 332.134 296.167 332.201 296.302 332.336C296.437 332.471 296.505 332.633 296.505 332.822C296.505 332.947 296.473 333.062 296.409 333.166C296.348 333.271 296.265 333.355 296.161 333.419C296.059 333.48 295.944 333.51 295.816 333.51ZM300.391 333.556C299.814 333.556 299.324 333.399 298.918 333.086C298.513 332.77 298.203 332.312 297.989 331.713C297.775 331.111 297.668 330.384 297.668 329.533C297.668 328.686 297.775 327.964 297.989 327.364C298.206 326.763 298.517 326.304 298.922 325.987C299.33 325.669 299.82 325.509 300.391 325.509C300.962 325.509 301.45 325.669 301.855 325.987C302.263 326.304 302.574 326.763 302.789 327.364C303.005 327.964 303.114 328.686 303.114 329.533C303.114 330.384 303.007 331.111 302.792 331.713C302.578 332.312 302.269 332.77 301.863 333.086C301.458 333.399 300.967 333.556 300.391 333.556ZM300.391 332.715C300.962 332.715 301.405 332.44 301.722 331.889C302.038 331.338 302.196 330.553 302.196 329.533C302.196 328.855 302.123 328.277 301.978 327.8C301.835 327.324 301.629 326.96 301.358 326.71C301.091 326.46 300.768 326.336 300.391 326.336C299.825 326.336 299.382 326.615 299.064 327.173C298.745 327.729 298.585 328.516 298.585 329.533C298.585 330.211 298.657 330.787 298.8 331.262C298.942 331.736 299.148 332.097 299.415 332.344C299.686 332.591 300.011 332.715 300.391 332.715ZM307.122 333.556C306.546 333.556 306.055 333.399 305.649 333.086C305.244 332.77 304.934 332.312 304.72 331.713C304.506 331.111 304.399 330.384 304.399 329.533C304.399 328.686 304.506 327.964 304.72 327.364C304.937 326.763 305.248 326.304 305.653 325.987C306.061 325.669 306.551 325.509 307.122 325.509C307.693 325.509 308.181 325.669 308.587 325.987C308.995 326.304 309.306 326.763 309.52 327.364C309.737 327.964 309.845 328.686 309.845 329.533C309.845 330.384 309.738 331.111 309.524 331.713C309.31 332.312 309 332.77 308.594 333.086C308.189 333.399 307.698 333.556 307.122 333.556ZM307.122 332.715C307.693 332.715 308.137 332.44 308.453 331.889C308.769 331.338 308.927 330.553 308.927 329.533C308.927 328.855 308.854 328.277 308.709 327.8C308.566 327.324 308.36 326.96 308.09 326.71C307.822 326.46 307.499 326.336 307.122 326.336C306.556 326.336 306.113 326.615 305.795 327.173C305.476 327.729 305.317 328.516 305.317 329.533C305.317 330.211 305.388 330.787 305.531 331.262C305.674 331.736 305.879 332.097 306.147 332.344C306.417 332.591 306.742 332.715 307.122 332.715Z" fill="#263238"/>
<path opacity="0.4" d="M376.371 360.156H359.614C356.527 360.156 353.893 362.677 353.731 365.763L352.907 382.517C352.762 385.602 355.153 388.123 358.24 388.123H374.998C378.084 388.123 380.719 385.602 380.88 382.517L381.704 365.763C381.85 362.677 379.458 360.156 376.371 360.156Z" fill="#263238"/>
<path opacity="0.1" d="M439.234 378.962H396.054C394.762 378.962 393.566 378.461 392.693 377.524C391.804 376.603 391.368 375.376 391.433 374.083C391.562 371.433 393.824 369.285 396.458 369.285H439.638C440.931 369.285 442.126 369.785 442.999 370.723C443.872 371.643 444.324 372.871 444.26 374.164C444.13 376.813 441.868 378.962 439.234 378.962ZM396.442 370.916C394.648 370.916 393.113 372.37 393.032 374.18C392.984 375.02 393.291 375.828 393.857 376.426C394.422 377.023 395.214 377.363 396.054 377.363H439.234C441.028 377.363 442.563 375.909 442.644 374.115C442.692 373.259 442.385 372.467 441.819 371.87C441.254 371.272 440.462 370.933 439.622 370.933H396.442V370.916Z" fill="#263238"/>
<path d="M367.16 378.074H367.128C366.675 378.057 366.336 377.67 366.352 377.234L366.708 370.076C366.724 369.624 367.095 369.252 367.548 369.317C368 369.333 368.34 369.721 368.324 370.157L367.968 377.314C367.952 377.75 367.596 378.09 367.16 378.09V378.074Z" fill="white"/>
<path d="M367.128 378.962H367.112C366.902 378.962 366.691 378.865 366.546 378.704L363.411 375.408C363.104 375.085 363.12 374.568 363.443 374.261C363.766 373.954 364.284 373.97 364.591 374.293L367.176 377.007L370.053 374.261C370.376 373.954 370.893 373.97 371.2 374.293C371.507 374.616 371.491 375.133 371.168 375.44L367.71 378.736C367.564 378.881 367.354 378.962 367.144 378.962H367.128Z" fill="white"/>
<path d="M153.17 97.0186C146.657 105.436 145.51 117.036 145.882 122.966C146.334 130.333 136.719 130.672 139.385 143.452C141.696 154.535 134.957 158.057 135.119 166.668C135.475 186.783 153.525 192.729 187.187 186.783C220.864 180.838 200.616 150.108 205.124 138.007C209.633 125.922 206.045 97.5356 197.06 98.812C198.078 77.4533 166.146 80.2322 153.17 97.0186Z" fill="#263238"/>
<path d="M164.547 187.478C164.32 191.565 163.884 195.249 163.335 199.11C162.769 202.923 162.106 206.72 161.266 210.517C160.426 214.313 159.44 218.11 158.244 221.891C157.048 225.687 155.594 229.484 153.832 233.281L153.461 234.089C151.651 237.982 147.11 239.76 143.151 238.225C140.759 237.288 138.674 236.205 136.622 235.107C134.57 234.024 132.679 232.796 130.772 231.584C128.898 230.34 127.071 229.048 125.294 227.707C123.516 226.334 121.803 224.96 120.107 223.377C118.103 221.503 118.006 218.385 119.864 216.381C121.108 215.057 122.918 214.556 124.583 214.927L124.744 214.96C126.813 215.428 128.898 216.042 130.934 216.608L136.994 218.385L142.876 220.114C144.783 220.663 146.69 221.131 148.387 221.503L137.705 226.447C138.755 223.426 139.612 220.21 140.42 216.931C141.163 213.619 141.826 210.226 142.423 206.801C142.973 203.359 143.522 199.902 143.975 196.412C144.427 192.971 144.864 189.336 145.219 186.088L145.251 185.862C145.833 180.547 150.633 176.702 155.949 177.299C161.088 177.865 164.837 182.372 164.563 187.478H164.547Z" fill="#E98E85"/>
<path d="M118.895 209.386L114.919 207.964C112.867 207.237 110.604 208.336 109.926 210.404L108.423 214.943C107.825 216.753 108.617 218.724 110.297 219.613L115.275 222.23C115.275 222.23 123.419 228.434 127.411 224.637L129.625 218.159L123.629 212.326C122.288 211.017 120.672 210.016 118.895 209.386Z" fill="#E98E85"/>
<path d="M162.575 165.247C150.665 167.492 148.144 172.355 139.369 190.434C142.019 202.325 164.627 212.795 164.627 212.795C164.627 212.795 182.209 180.628 162.575 165.247Z" fill="#263238"/>
<path d="M183.017 573.161C190.483 563.209 191.113 560.462 195.816 555.227C199.84 550.736 199.807 551.091 204.542 547.23C207.677 544.677 205.787 541.026 202.91 539.475C200.664 538.263 198.175 537.213 195.477 535.63L183.163 545.679C184.391 551.398 181.854 563.289 176.666 571.19C172.966 576.845 180.044 577.152 183.05 573.161H183.017Z" fill="#263238"/>
<path d="M146.657 255.787C146.657 255.787 135.184 336.277 126.635 391.193C124.922 402.211 125.973 413.117 129.673 422.988C144.298 461.941 182.209 546.632 182.209 546.632C183.955 548.345 194.426 538.377 195.461 535.63C195.461 535.63 182.355 428.594 161.977 404.602C203.541 318.828 202.894 255.787 202.894 255.787H146.641H146.657Z" fill="#375DED"/>
<g opacity="0.2">
<path d="M202.878 258.178L172.206 260.327C172.206 260.327 166.26 348.734 164.999 398.301C199.048 325.388 202.539 270.069 202.878 258.178Z" fill="black"/>
<path d="M164.773 408.431C164.353 433.845 163.076 466.933 160.587 497.485C168.36 515.37 175.358 531.187 179.171 539.782C182.856 529.135 186.977 516.436 190.661 502.946C185.506 471.813 176.473 426.995 164.773 408.431Z" fill="black"/>
</g>
<path d="M176.78 542.448C177.701 543.821 179.333 546.277 180.48 548.151C180.852 548.765 181.692 548.894 182.371 548.458C187.494 545.162 194.572 538.409 196.883 536.163C197.335 535.711 197.481 535.064 197.255 534.547L194.782 528.925C194.443 528.166 193.441 527.972 192.697 528.553L177.2 540.525C176.57 541.01 176.376 541.866 176.764 542.448H176.78Z" fill="#407BFF"/>
<path opacity="0.3" d="M176.78 542.448C177.701 543.821 179.333 546.277 180.48 548.151C180.852 548.765 181.692 548.894 182.371 548.458C187.494 545.162 194.572 538.409 196.883 536.163C197.335 535.711 197.481 535.064 197.255 534.547L194.782 528.925C194.443 528.166 193.441 527.972 192.697 528.553L177.2 540.525C176.57 541.01 176.376 541.866 176.764 542.448H176.78Z" fill="white"/>
<path d="M140.177 577.135C151.91 579.462 156.434 580.189 163.108 581.288C168.829 582.225 169.896 583.162 174.469 583.97C178.283 584.648 179.64 581.142 180.206 576.925C180.48 574.809 180.998 569.59 181.595 566.198L163.415 565.228C159.085 569.17 147.546 570.463 140.565 569.994C133.907 569.542 135.491 576.215 140.177 577.135Z" fill="#263238"/>
<path d="M163.528 255.787C163.528 255.787 169.572 359.155 170.671 405.992C171.835 455.188 170.881 532.059 161.961 564.744C164.417 566.375 175.729 566.375 181.612 564.647C181.612 564.647 218.359 460.439 204.51 408.157C232.354 293.027 215.806 265.836 211.184 255.77H163.512L163.528 255.787Z" fill="#375DED"/>
<path d="M163.512 558.055C162.963 559.654 161.928 562.449 160.846 564.55C160.458 565.309 160.765 566.068 161.508 566.262C167.811 567.91 177.846 567.28 181.062 567.022C181.676 566.973 182.258 566.553 182.532 566.004L185.425 559.961C185.829 559.137 185.393 558.313 184.52 558.249L165.29 556.859C164.546 556.811 163.771 557.328 163.512 558.039V558.055Z" fill="#407BFF"/>
<path opacity="0.3" d="M163.512 558.055C162.963 559.654 161.928 562.449 160.846 564.55C160.458 565.309 160.765 566.068 161.508 566.262C167.811 567.91 177.846 567.28 181.062 567.022C181.676 566.973 182.258 566.553 182.532 566.004L185.425 559.961C185.829 559.137 185.393 558.313 184.52 558.249L165.29 556.859C164.546 556.811 163.771 557.328 163.512 558.039V558.055Z" fill="white"/>
<path d="M210.732 164.407C208.178 164.148 205.464 163.938 202.684 163.793C191.857 163.276 182.985 162.92 173.386 163.793C170.202 164.083 166.906 164.487 163.738 164.924C152.346 166.507 143.361 176.427 143.005 187.785C142.811 194.134 144.185 203.715 145.526 218.821C147.271 238.516 142.472 248.532 146.657 255.787C154.883 263.606 192.665 259.696 211.184 255.787C216.743 248.613 205.835 229.904 223.595 183.956C227.15 174.763 220.282 165.376 210.716 164.39L210.732 164.407Z" fill="#263238"/>
<path d="M172.4 179.513C172.061 180.708 171.35 181.565 170.833 181.419C170.3 181.274 170.154 180.175 170.494 178.98C170.833 177.784 171.544 176.928 172.061 177.073C172.594 177.219 172.74 178.317 172.4 179.513Z" fill="white"/>
<path d="M170.025 189.481C169.879 190.725 169.298 191.662 168.764 191.598C168.215 191.533 167.892 190.467 168.053 189.239C168.199 187.995 168.781 187.058 169.314 187.122C169.863 187.187 170.187 188.253 170.025 189.481Z" fill="white"/>
<path d="M196.479 131.819C196.188 141.578 194.944 157.508 201.068 163.793C201.068 163.793 192.132 162.452 173.176 174.181C167.682 166.313 171.77 163.793 171.77 163.793C177.168 162.807 181.886 157.298 178.945 150.48L196.495 131.819H196.479Z" fill="#E98E85"/>
<path d="M177.151 171.806C183.389 172.695 185.345 182.13 185.345 182.13C185.345 182.13 200.341 171.515 205.092 164.035C202.862 162.872 199.614 160.561 199.614 160.561C199.614 160.561 180.787 168.203 177.135 171.806H177.151Z" fill="white"/>
<path d="M171.221 170.804C171.221 170.804 166.26 171.871 163.771 178.77C162.349 165.021 168.861 163.76 168.861 163.76C168.861 163.76 170.817 162.355 174.501 162.936C169.556 165.554 171.205 170.804 171.205 170.804H171.221Z" fill="white"/>
<path opacity="0.2" d="M185.506 144.599L183.033 146.101L178.929 150.464C180.076 153.081 180.076 155.521 179.317 157.556C184.003 155.747 188.722 152.079 189.966 148.121C189.966 148.089 189.982 148.073 189.998 148.04C190.806 145.391 187.865 143.161 185.506 144.599Z" fill="black"/>
<path d="M193.327 108.958C197.836 123.773 200.05 129.929 195.735 140.431C189.239 156.215 170.623 159.366 161.929 146.408C154.091 134.744 148.031 112.464 159.618 100.751C171.027 89.2151 188.835 94.1428 193.344 108.958H193.327Z" fill="#E98E85"/>
<path opacity="0.4" d="M177.636 100.298C173.854 110.396 182.856 122.998 195.735 122.012C201.714 110.558 198.078 101.801 194.895 98.2303C191.695 94.6598 181.999 94.0135 177.652 100.298H177.636Z" fill="#263238"/>
<path d="M194.798 100.153C193.053 112.416 153.251 104.822 151.085 117.117C150.988 101.058 168.942 79.6021 194.798 100.153Z" fill="#263238"/>
<path d="M173.838 124.08C174.275 125.308 174 126.569 173.24 126.892C172.481 127.215 171.511 126.488 171.075 125.26C170.639 124.032 170.913 122.772 171.673 122.449C172.432 122.126 173.402 122.853 173.838 124.08Z" fill="#263238"/>
<path d="M158.907 128.75C159.343 129.977 159.068 131.238 158.309 131.561C157.549 131.884 156.58 131.157 156.143 129.929C155.707 128.701 155.982 127.441 156.741 127.118C157.501 126.795 158.47 127.522 158.907 128.75Z" fill="#263238"/>
<path d="M157.113 127.037L154.026 127.392C154.026 127.392 156.273 129.073 157.113 127.037Z" fill="#263238"/>
<path d="M163.092 128.039C163.092 128.039 162.979 134.178 161.702 137.652C163.771 138.508 166.13 136.682 166.13 136.682L163.076 128.023L163.092 128.039Z" fill="#A02724"/>
<path d="M170.025 140.738C169.411 140.996 168.716 141.222 167.989 141.384C167.795 141.432 167.601 141.303 167.568 141.093C167.536 140.883 167.665 140.689 167.875 140.641C173.289 139.429 175.228 134.921 175.244 134.873C175.325 134.679 175.551 134.566 175.729 134.647C175.907 134.727 176.004 134.954 175.907 135.147C175.826 135.325 174.275 138.96 170.025 140.738Z" fill="#263238"/>
<path d="M202.813 121.673C202.91 125.163 201.553 128.055 199.775 129.719C197.093 132.223 193.828 129.364 192.956 125.228C192.18 121.512 192.633 115.728 196.091 114.871C199.517 114.031 202.7 117.683 202.813 121.673Z" fill="#B55B52"/>
<path d="M173.532 117.02C173.338 117.052 173.128 117.02 172.966 116.891C170.397 114.92 167.811 115.938 167.779 115.954C167.391 116.099 166.971 115.921 166.841 115.518C166.712 115.13 166.922 114.677 167.31 114.516C167.439 114.467 170.704 113.191 173.887 115.631C174.21 115.873 174.259 116.358 174 116.697C173.871 116.859 173.709 116.972 173.515 117.004L173.532 117.02Z" fill="#263238"/>
<path d="M152.104 124.63C151.942 124.711 151.748 124.727 151.554 124.662C151.182 124.533 150.988 124.08 151.134 123.677C152.621 119.621 155.933 118.684 156.079 118.652C156.483 118.539 156.871 118.797 156.952 119.201C157.032 119.621 156.774 120.041 156.386 120.138C156.257 120.171 153.703 120.946 152.508 124.161C152.427 124.371 152.281 124.533 152.104 124.614V124.63Z" fill="#263238"/>
<path d="M172.028 122.368L168.942 122.723C168.942 122.723 171.188 124.404 172.028 122.368Z" fill="#263238"/>
<path d="M220.525 198.513C220.525 199.369 220.525 199.773 220.525 200.354L220.46 201.938C220.412 202.972 220.315 203.99 220.202 205.007C219.992 207.027 219.636 209.03 219.232 211.018C218.376 214.992 217.164 218.95 215.402 222.779C213.673 226.608 211.443 230.34 208.599 233.701C205.819 237.094 202.345 240.05 198.58 242.377L197.998 242.732C197.513 243.039 196.98 243.265 196.446 243.411C192.843 244.429 190.112 243.944 188.043 243.411C185.959 242.829 184.326 242.054 182.824 241.278C179.866 239.695 177.523 237.853 175.293 235.995C173.095 234.105 171.091 232.15 169.217 230.098C167.342 228.03 165.613 225.962 163.933 223.603C162.365 221.406 162.898 218.352 165.096 216.785C166.712 215.638 168.781 215.622 170.38 216.543L170.574 216.656L177.071 220.437C179.236 221.681 181.385 222.876 183.502 223.926C185.587 224.993 187.704 225.897 189.498 226.463C190.37 226.738 191.194 226.883 191.647 226.867C192.116 226.867 192.083 226.576 190.968 226.802L188.851 227.836C190.839 226.253 192.568 224.411 194.039 222.295C194.782 221.244 195.461 220.113 196.059 218.934C196.689 217.755 197.254 216.527 197.755 215.234C198.741 212.665 199.549 209.903 200.099 207.059C200.389 205.637 200.6 204.2 200.794 202.762C200.89 202.051 200.955 201.324 201.02 200.629L201.149 198.819L201.214 197.963C201.618 192.632 206.256 188.641 211.588 189.029C216.598 189.4 220.444 193.585 220.541 198.513H220.525Z" fill="#E98E85"/>
<path d="M159.989 231.407H125.003C121.739 231.407 118.62 229.113 118.086 226.318L113.788 204.103C113.238 201.308 115.468 199.013 118.733 199.013H153.719C156.983 199.013 160.102 201.308 160.636 204.103L164.934 226.318C165.484 229.113 163.254 231.407 159.989 231.407Z" fill="#375DED"/>
<path d="M158.907 229.953H124.89C122.369 229.953 119.912 228.192 119.508 226.107L115.339 204.523C115.178 203.731 115.355 202.988 115.856 202.406C116.487 201.647 117.569 201.211 118.814 201.211H152.83C155.351 201.211 157.808 202.972 158.212 205.056L162.381 226.641C162.543 227.432 162.365 228.175 161.864 228.757C161.234 229.516 160.151 229.953 158.907 229.953ZM118.797 201.598C117.666 201.598 116.713 201.986 116.147 202.649C115.743 203.149 115.598 203.763 115.727 204.442L119.896 226.027C120.268 227.933 122.547 229.549 124.89 229.549H158.907C160.038 229.549 160.991 229.161 161.557 228.499C161.961 227.998 162.106 227.384 161.977 226.705L157.808 205.12C157.436 203.214 155.157 201.598 152.83 201.598H118.814H118.797Z" fill="white"/>
<path d="M160.733 210.226L156.644 209.208C154.527 208.675 152.394 209.983 151.91 212.116L150.843 216.785C150.423 218.643 151.409 220.534 153.17 221.244L158.374 223.361C158.374 223.361 167.084 228.757 170.687 224.589L172.271 217.932L165.742 212.698C164.272 211.518 162.575 210.678 160.749 210.226H160.733Z" fill="#E98E85"/>
<path d="M211.33 164.471C225.518 165.311 229.865 180.094 225.147 206.978C222.852 217.076 194.54 203.279 194.54 203.279C194.54 203.279 193.554 174.553 211.33 164.471Z" fill="#263238"/>
<path d="M611.742 451.585C606.587 419.272 620.711 376.894 638.616 380.012C653.467 382.597 614.813 441.713 611.742 451.585Z" fill="#375DED"/>
<path d="M606.103 468.064C622.957 444.137 612.55 394.957 594.758 393.826C577.112 392.711 604.648 456.012 606.103 468.064Z" fill="#263238"/>
<path d="M606.943 482.072C605.02 430.42 636.515 404.376 650.607 410.548C665.038 416.865 617.948 453.459 606.943 482.072Z" fill="#375DED"/>
<path d="M602.709 514.271C619.547 477.871 605.117 420.969 578.339 427.124C556.136 432.23 598.733 498.939 602.709 514.271Z" fill="#375DED"/>
<path d="M603.872 525.096C602.014 490.198 591.445 445.688 569.694 449.808C548.88 453.75 597.392 494.625 603.872 525.096Z" fill="#263238"/>
<path d="M598.523 542.238C603.824 490.748 647.941 462.006 647.488 481.49C647.003 502.38 613.342 515.968 598.523 542.238Z" fill="#375DED"/>
<path d="M602.806 531.332C608.979 512.914 594.451 487.904 579.18 493.236C566.527 497.663 598.83 524.595 602.806 531.332Z" fill="#375DED"/>
<path d="M603.21 524.45C596.552 484.948 630.585 416.994 661.305 431.6C691.168 445.801 617.77 479.067 603.21 524.45Z" fill="#263238"/>
<path d="M618.368 584.034H588.989C583.721 584.034 579.051 580.609 577.516 575.568C573.863 563.613 571.65 551.221 572.312 539.136C572.522 535.242 573.023 531.365 573.88 527.568C574.235 526.001 575.609 524.87 577.209 524.87H630.165C631.765 524.87 633.138 526.001 633.494 527.568C634.35 531.381 634.867 535.242 635.061 539.136C635.724 551.221 633.51 563.613 629.858 575.568C628.323 580.609 623.636 584.034 618.384 584.034H618.368Z" fill="#407BFF"/>
<path opacity="0.5" d="M635.045 539.152H572.312C572.522 535.258 573.023 531.381 573.88 527.584C574.235 526.017 575.609 524.886 577.208 524.886H630.165C631.765 524.886 633.138 526.017 633.494 527.584C634.35 531.397 634.867 535.258 635.061 539.152H635.045Z" fill="white"/>
<path d="M231.719 65V58.4545H232.707V64.1499H235.673V65H231.719ZM238.79 65.0991C238.33 65.0991 237.928 64.9936 237.585 64.7827C237.242 64.5717 236.976 64.2766 236.786 63.8974C236.597 63.5181 236.502 63.0749 236.502 62.5678C236.502 62.0586 236.597 61.6133 236.786 61.2319C236.976 60.8505 237.242 60.5543 237.585 60.3434C237.928 60.1325 238.33 60.027 238.79 60.027C239.251 60.027 239.652 60.1325 239.995 60.3434C240.338 60.5543 240.605 60.8505 240.794 61.2319C240.984 61.6133 241.079 62.0586 241.079 62.5678C241.079 63.0749 240.984 63.5181 240.794 63.8974C240.605 64.2766 240.338 64.5717 239.995 64.7827C239.652 64.9936 239.251 65.0991 238.79 65.0991ZM238.794 64.2969C239.092 64.2969 239.339 64.218 239.535 64.0604C239.731 63.9027 239.876 63.6928 239.97 63.4308C240.066 63.1687 240.113 62.88 240.113 62.5646C240.113 62.2514 240.066 61.9638 239.97 61.7017C239.876 61.4375 239.731 61.2255 239.535 61.0657C239.339 60.9059 239.092 60.826 238.794 60.826C238.493 60.826 238.244 60.9059 238.046 61.0657C237.85 61.2255 237.704 61.4375 237.608 61.7017C237.514 61.9638 237.467 62.2514 237.467 62.5646C237.467 62.88 237.514 63.1687 237.608 63.4308C237.704 63.6928 237.85 63.9027 238.046 64.0604C238.244 64.218 238.493 64.2969 238.794 64.2969ZM244.204 66.9432C243.814 66.9432 243.478 66.892 243.197 66.7898C242.918 66.6875 242.69 66.5522 242.513 66.3839C242.336 66.2156 242.204 66.0313 242.117 65.831L242.938 65.4922C242.995 65.5859 243.072 65.685 243.168 65.7894C243.266 65.896 243.398 65.9865 243.564 66.0611C243.733 66.1357 243.949 66.1729 244.213 66.1729C244.575 66.1729 244.875 66.0845 245.111 65.9077C245.348 65.733 245.466 65.4538 245.466 65.0703V64.1051H245.405C245.348 64.2095 245.265 64.3256 245.156 64.4535C245.049 64.5813 244.902 64.6921 244.715 64.7859C244.527 64.8796 244.283 64.9265 243.983 64.9265C243.595 64.9265 243.246 64.8359 242.935 64.6548C242.626 64.4716 242.381 64.2021 242.2 63.8462C242.021 63.4883 241.931 63.0483 241.931 62.5263C241.931 62.0043 242.02 61.5568 242.196 61.1839C242.375 60.8111 242.62 60.5256 242.932 60.3274C243.243 60.1271 243.595 60.027 243.989 60.027C244.294 60.027 244.54 60.0781 244.728 60.1804C244.915 60.2805 245.061 60.3977 245.166 60.532C245.272 60.6662 245.354 60.7844 245.412 60.8867H245.482V60.0909H246.418V65.1087C246.418 65.5305 246.32 65.8768 246.124 66.1474C245.928 66.418 245.663 66.6183 245.329 66.7482C244.996 66.8782 244.621 66.9432 244.204 66.9432ZM244.194 64.1339C244.469 64.1339 244.701 64.07 244.891 63.9421C245.082 63.8121 245.227 63.6268 245.325 63.386C245.426 63.1431 245.476 62.8523 245.476 62.5135C245.476 62.1832 245.427 61.8924 245.329 61.641C245.231 61.3896 245.087 61.1935 244.897 61.0529C244.707 60.9102 244.473 60.8388 244.194 60.8388C243.906 60.8388 243.667 60.9134 243.475 61.0625C243.283 61.2095 243.138 61.4098 243.04 61.6634C242.944 61.9169 242.896 62.2003 242.896 62.5135C242.896 62.8352 242.945 63.1175 243.043 63.3604C243.141 63.6033 243.286 63.793 243.478 63.9293C243.672 64.0657 243.911 64.1339 244.194 64.1339ZM247.7 65V60.0909H248.656V65H247.7ZM248.183 59.3335C248.016 59.3335 247.874 59.2781 247.754 59.1673C247.637 59.0543 247.579 58.9201 247.579 58.7646C247.579 58.6069 247.637 58.4727 247.754 58.3619C247.874 58.2489 248.016 58.1925 248.183 58.1925C248.349 58.1925 248.491 58.2489 248.608 58.3619C248.727 58.4727 248.787 58.6069 248.787 58.7646C248.787 58.9201 248.727 59.0543 248.608 59.1673C248.491 59.2781 248.349 59.3335 248.183 59.3335ZM250.897 62.0852V65H249.941V60.0909H250.858V60.8899H250.919C251.032 60.63 251.209 60.4212 251.45 60.2635C251.693 60.1058 251.998 60.027 252.367 60.027C252.702 60.027 252.994 60.0973 253.246 60.2379C253.497 60.3764 253.692 60.5831 253.831 60.858C253.969 61.1328 254.039 61.4727 254.039 61.8775V65H253.083V61.9925C253.083 61.6367 252.99 61.3587 252.805 61.1584C252.619 60.956 252.365 60.8548 252.041 60.8548C251.819 60.8548 251.622 60.9027 251.45 60.9986C251.279 61.0945 251.144 61.2351 251.044 61.4205C250.946 61.6037 250.897 61.8253 250.897 62.0852Z" fill="#FFFCFC"/>
<path d="M501.793 240V233.455H504.004C504.518 233.455 504.938 233.547 505.263 233.733C505.592 233.916 505.835 234.164 505.992 234.477C506.15 234.79 506.229 235.14 506.229 235.526C506.229 235.911 506.15 236.262 505.992 236.577C505.837 236.892 505.596 237.144 505.27 237.331C504.944 237.517 504.526 237.609 504.017 237.609H502.432V236.906H503.991C504.343 236.906 504.625 236.846 504.838 236.724C505.051 236.603 505.206 236.439 505.302 236.232C505.4 236.023 505.449 235.788 505.449 235.526C505.449 235.263 505.4 235.029 505.302 234.822C505.206 234.616 505.05 234.454 504.835 234.337C504.62 234.217 504.335 234.158 503.979 234.158H502.585V240H501.793ZM507.403 240V235.091H508.132V235.832H508.183C508.273 235.589 508.434 235.392 508.669 235.241C508.903 235.09 509.167 235.014 509.461 235.014C509.517 235.014 509.586 235.015 509.669 235.017C509.752 235.02 509.815 235.023 509.858 235.027V235.794C509.832 235.788 509.774 235.778 509.682 235.765C509.593 235.75 509.498 235.743 509.398 235.743C509.159 235.743 508.946 235.793 508.758 235.893C508.573 235.991 508.426 236.127 508.317 236.302C508.211 236.475 508.157 236.672 508.157 236.893V240H507.403ZM512.597 240.102C512.154 240.102 511.765 239.997 511.43 239.786C511.098 239.575 510.838 239.28 510.65 238.901C510.465 238.521 510.372 238.078 510.372 237.571C510.372 237.06 510.465 236.613 510.65 236.232C510.838 235.85 511.098 235.554 511.43 235.343C511.765 235.132 512.154 235.027 512.597 235.027C513.04 235.027 513.428 235.132 513.76 235.343C514.095 235.554 514.355 235.85 514.54 236.232C514.727 236.613 514.821 237.06 514.821 237.571C514.821 238.078 514.727 238.521 514.54 238.901C514.355 239.28 514.095 239.575 513.76 239.786C513.428 239.997 513.04 240.102 512.597 240.102ZM512.597 239.425C512.933 239.425 513.21 239.338 513.428 239.166C513.645 238.993 513.806 238.766 513.91 238.485C514.015 238.204 514.067 237.899 514.067 237.571C514.067 237.243 514.015 236.937 513.91 236.654C513.806 236.37 513.645 236.141 513.428 235.967C513.21 235.792 512.933 235.705 512.597 235.705C512.26 235.705 511.983 235.792 511.766 235.967C511.548 236.141 511.388 236.37 511.283 236.654C511.179 236.937 511.127 237.243 511.127 237.571C511.127 237.899 511.179 238.204 511.283 238.485C511.388 238.766 511.548 238.993 511.766 239.166C511.983 239.338 512.26 239.425 512.597 239.425ZM515.973 235.091H516.727V240.358C516.727 240.661 516.675 240.923 516.57 241.144C516.468 241.366 516.312 241.537 516.104 241.659C515.897 241.78 515.636 241.841 515.321 241.841C515.295 241.841 515.269 241.841 515.244 241.841C515.218 241.841 515.193 241.841 515.167 241.841V241.138C515.193 241.138 515.216 241.138 515.237 241.138C515.259 241.138 515.282 241.138 515.308 241.138C515.538 241.138 515.706 241.07 515.813 240.933C515.919 240.799 515.973 240.607 515.973 240.358V235.091ZM516.343 234.273C516.196 234.273 516.07 234.223 515.963 234.123C515.859 234.022 515.806 233.902 515.806 233.761C515.806 233.621 515.859 233.5 515.963 233.4C516.07 233.3 516.196 233.25 516.343 233.25C516.49 233.25 516.616 233.3 516.72 233.4C516.827 233.5 516.88 233.621 516.88 233.761C516.88 233.902 516.827 234.022 516.72 234.123C516.616 234.223 516.49 234.273 516.343 234.273ZM520.167 240.102C519.694 240.102 519.286 239.998 518.942 239.789C518.602 239.578 518.338 239.284 518.153 238.907C517.97 238.528 517.878 238.087 517.878 237.584C517.878 237.081 517.97 236.638 518.153 236.254C518.338 235.869 518.596 235.568 518.926 235.353C519.259 235.136 519.647 235.027 520.09 235.027C520.346 235.027 520.598 235.07 520.847 235.155C521.097 235.24 521.324 235.379 521.528 235.57C521.733 235.76 521.896 236.011 522.017 236.325C522.138 236.638 522.199 237.023 522.199 237.482V237.801H518.415V237.149H521.432C521.432 236.872 521.377 236.625 521.266 236.408C521.157 236.19 521.002 236.019 520.799 235.893C520.599 235.767 520.363 235.705 520.09 235.705C519.789 235.705 519.529 235.779 519.31 235.928C519.093 236.075 518.925 236.267 518.808 236.504C518.691 236.74 518.632 236.994 518.632 237.264V237.699C518.632 238.07 518.696 238.384 518.824 238.642C518.954 238.897 519.134 239.092 519.364 239.227C519.594 239.359 519.862 239.425 520.167 239.425C520.365 239.425 520.544 239.397 520.703 239.342C520.865 239.284 521.005 239.199 521.122 239.086C521.239 238.971 521.33 238.828 521.394 238.658L522.123 238.862C522.046 239.109 521.917 239.327 521.736 239.514C521.555 239.7 521.331 239.844 521.065 239.949C520.798 240.051 520.499 240.102 520.167 240.102ZM525.341 240.102C524.881 240.102 524.484 239.994 524.152 239.776C523.82 239.559 523.564 239.26 523.385 238.878C523.206 238.497 523.116 238.061 523.116 237.571C523.116 237.072 523.208 236.632 523.391 236.251C523.577 235.868 523.835 235.568 524.165 235.353C524.497 235.136 524.885 235.027 525.328 235.027C525.673 235.027 525.984 235.091 526.261 235.219C526.538 235.347 526.765 235.526 526.942 235.756C527.119 235.986 527.229 236.254 527.271 236.561H526.517C526.46 236.337 526.332 236.139 526.134 235.967C525.938 235.792 525.673 235.705 525.341 235.705C525.047 235.705 524.789 235.781 524.567 235.935C524.348 236.086 524.176 236.3 524.053 236.577C523.931 236.852 523.871 237.175 523.871 237.545C523.871 237.925 523.93 238.255 524.05 238.536C524.171 238.817 524.342 239.036 524.561 239.191C524.783 239.347 525.043 239.425 525.341 239.425C525.537 239.425 525.715 239.391 525.875 239.322C526.034 239.254 526.17 239.156 526.281 239.028C526.391 238.901 526.47 238.747 526.517 238.568H527.271C527.229 238.858 527.123 239.119 526.955 239.351C526.789 239.581 526.568 239.765 526.293 239.901C526.021 240.035 525.703 240.102 525.341 240.102ZM530.509 235.091V235.73H527.965V235.091H530.509ZM528.706 233.915H529.461V238.594C529.461 238.807 529.491 238.967 529.553 239.073C529.617 239.178 529.698 239.248 529.796 239.284C529.896 239.318 530.002 239.335 530.113 239.335C530.196 239.335 530.264 239.331 530.317 239.322C530.37 239.312 530.413 239.303 530.445 239.297L530.598 239.974C530.547 239.994 530.476 240.013 530.384 240.032C530.293 240.053 530.176 240.064 530.036 240.064C529.823 240.064 529.614 240.018 529.409 239.926C529.207 239.835 529.039 239.695 528.904 239.508C528.772 239.32 528.706 239.084 528.706 238.798V233.915ZM533.919 234.158V233.455H538.828V234.158H536.77V240H535.977V234.158H533.919ZM541.295 240.102C540.822 240.102 540.414 239.998 540.071 239.789C539.73 239.578 539.467 239.284 539.282 238.907C539.099 238.528 539.007 238.087 539.007 237.584C539.007 237.081 539.099 236.638 539.282 236.254C539.467 235.869 539.725 235.568 540.055 235.353C540.388 235.136 540.776 235.027 541.219 235.027C541.474 235.027 541.727 235.07 541.976 235.155C542.225 235.24 542.452 235.379 542.657 235.57C542.862 235.76 543.025 236.011 543.146 236.325C543.267 236.638 543.328 237.023 543.328 237.482V237.801H539.544V237.149H542.561C542.561 236.872 542.506 236.625 542.395 236.408C542.286 236.19 542.131 236.019 541.928 235.893C541.728 235.767 541.491 235.705 541.219 235.705C540.918 235.705 540.658 235.779 540.439 235.928C540.222 236.075 540.054 236.267 539.937 236.504C539.82 236.74 539.761 236.994 539.761 237.264V237.699C539.761 238.07 539.825 238.384 539.953 238.642C540.083 238.897 540.263 239.092 540.493 239.227C540.723 239.359 540.991 239.425 541.295 239.425C541.494 239.425 541.673 239.397 541.832 239.342C541.994 239.284 542.134 239.199 542.251 239.086C542.368 238.971 542.459 238.828 542.523 238.658L543.251 238.862C543.175 239.109 543.046 239.327 542.865 239.514C542.684 239.7 542.46 239.844 542.194 239.949C541.927 240.051 541.628 240.102 541.295 240.102ZM545.92 240.115C545.609 240.115 545.327 240.056 545.073 239.939C544.82 239.82 544.618 239.648 544.469 239.425C544.32 239.199 544.245 238.926 544.245 238.607C544.245 238.325 544.301 238.097 544.412 237.923C544.522 237.746 544.67 237.607 544.856 237.507C545.041 237.407 545.246 237.332 545.469 237.283C545.695 237.232 545.922 237.192 546.15 237.162C546.449 237.124 546.69 237.095 546.876 237.076C547.063 237.054 547.2 237.019 547.285 236.97C547.372 236.921 547.416 236.836 547.416 236.714V236.689C547.416 236.374 547.33 236.129 547.157 235.954C546.987 235.779 546.728 235.692 546.38 235.692C546.02 235.692 545.738 235.771 545.533 235.928C545.329 236.086 545.185 236.254 545.102 236.433L544.386 236.178C544.514 235.879 544.684 235.647 544.897 235.481C545.113 235.312 545.347 235.195 545.6 235.129C545.856 235.061 546.108 235.027 546.355 235.027C546.512 235.027 546.694 235.046 546.898 235.085C547.105 235.121 547.304 235.196 547.496 235.311C547.69 235.426 547.85 235.6 547.978 235.832C548.106 236.065 548.17 236.376 548.17 236.766V240H547.416V239.335H547.377C547.326 239.442 547.241 239.556 547.122 239.677C547.002 239.799 546.844 239.902 546.646 239.987C546.447 240.072 546.206 240.115 545.92 240.115ZM546.035 239.438C546.333 239.438 546.585 239.379 546.789 239.262C546.996 239.145 547.152 238.993 547.256 238.808C547.363 238.623 547.416 238.428 547.416 238.223V237.533C547.384 237.571 547.314 237.606 547.205 237.638C547.098 237.668 546.975 237.695 546.834 237.718C546.696 237.739 546.56 237.759 546.428 237.776C546.298 237.79 546.193 237.803 546.112 237.814C545.916 237.839 545.733 237.881 545.562 237.939C545.394 237.994 545.257 238.078 545.153 238.191C545.051 238.302 545 238.453 545 238.645C545 238.907 545.097 239.105 545.29 239.239C545.487 239.371 545.735 239.438 546.035 239.438ZM549.547 240V235.091H550.275V235.858H550.339C550.442 235.596 550.607 235.392 550.835 235.248C551.063 235.1 551.337 235.027 551.656 235.027C551.98 235.027 552.25 235.1 552.465 235.248C552.682 235.392 552.851 235.596 552.973 235.858H553.024C553.15 235.604 553.338 235.403 553.59 235.254C553.841 235.103 554.143 235.027 554.494 235.027C554.933 235.027 555.292 235.164 555.571 235.439C555.85 235.712 555.99 236.137 555.99 236.714V240H555.236V236.714C555.236 236.352 555.137 236.093 554.938 235.938C554.74 235.782 554.507 235.705 554.239 235.705C553.893 235.705 553.626 235.809 553.436 236.018C553.247 236.224 553.152 236.487 553.152 236.804V240H552.385V236.638C552.385 236.359 552.294 236.134 552.113 235.963C551.932 235.791 551.699 235.705 551.413 235.705C551.217 235.705 551.034 235.757 550.864 235.861C550.695 235.966 550.559 236.11 550.454 236.296C550.352 236.479 550.301 236.691 550.301 236.932V240H549.547Z" fill="black"/>
<path d="M252.585 233.455V240H251.793V233.455H252.585ZM254.826 237.047V240H254.072V235.091H254.801V235.858H254.865C254.98 235.609 255.155 235.408 255.389 235.257C255.623 235.104 255.926 235.027 256.297 235.027C256.629 235.027 256.92 235.095 257.169 235.232C257.418 235.366 257.612 235.57 257.751 235.845C257.889 236.118 257.959 236.463 257.959 236.881V240H257.204V236.932C257.204 236.546 257.104 236.246 256.904 236.031C256.704 235.813 256.429 235.705 256.079 235.705C255.839 235.705 255.623 235.757 255.434 235.861C255.246 235.966 255.098 236.118 254.989 236.318C254.881 236.518 254.826 236.761 254.826 237.047ZM263.175 235.091L261.36 240H260.593L258.778 235.091H259.596L260.951 239.003H261.002L262.357 235.091H263.175ZM265.989 240.102C265.546 240.102 265.157 239.997 264.823 239.786C264.49 239.575 264.23 239.28 264.043 238.901C263.858 238.521 263.765 238.078 263.765 237.571C263.765 237.06 263.858 236.613 264.043 236.232C264.23 235.85 264.49 235.554 264.823 235.343C265.157 235.132 265.546 235.027 265.989 235.027C266.433 235.027 266.82 235.132 267.153 235.343C267.487 235.554 267.747 235.85 267.933 236.232C268.12 236.613 268.214 237.06 268.214 237.571C268.214 238.078 268.12 238.521 267.933 238.901C267.747 239.28 267.487 239.575 267.153 239.786C266.82 239.997 266.433 240.102 265.989 240.102ZM265.989 239.425C266.326 239.425 266.603 239.338 266.82 239.166C267.038 238.993 267.199 238.766 267.303 238.485C267.407 238.204 267.46 237.899 267.46 237.571C267.46 237.243 267.407 236.937 267.303 236.654C267.199 236.37 267.038 236.141 266.82 235.967C266.603 235.792 266.326 235.705 265.989 235.705C265.653 235.705 265.376 235.792 265.158 235.967C264.941 236.141 264.78 236.37 264.676 236.654C264.571 236.937 264.519 237.243 264.519 237.571C264.519 237.899 264.571 238.204 264.676 238.485C264.78 238.766 264.941 238.993 265.158 239.166C265.376 239.338 265.653 239.425 265.989 239.425ZM269.365 240V235.091H270.119V240H269.365ZM269.749 234.273C269.602 234.273 269.475 234.223 269.368 234.123C269.264 234.022 269.212 233.902 269.212 233.761C269.212 233.621 269.264 233.5 269.368 233.4C269.475 233.3 269.602 233.25 269.749 233.25C269.896 233.25 270.021 233.3 270.126 233.4C270.232 233.5 270.286 233.621 270.286 233.761C270.286 233.902 270.232 234.022 270.126 234.123C270.021 234.223 269.896 234.273 269.749 234.273ZM273.495 240.102C273.035 240.102 272.639 239.994 272.306 239.776C271.974 239.559 271.718 239.26 271.539 238.878C271.36 238.497 271.271 238.061 271.271 237.571C271.271 237.072 271.362 236.632 271.546 236.251C271.731 235.868 271.989 235.568 272.319 235.353C272.651 235.136 273.039 235.027 273.482 235.027C273.828 235.027 274.139 235.091 274.416 235.219C274.693 235.347 274.92 235.526 275.096 235.756C275.273 235.986 275.383 236.254 275.426 236.561H274.671C274.614 236.337 274.486 236.139 274.288 235.967C274.092 235.792 273.828 235.705 273.495 235.705C273.201 235.705 272.943 235.781 272.722 235.935C272.502 236.086 272.331 236.3 272.207 236.577C272.086 236.852 272.025 237.175 272.025 237.545C272.025 237.925 272.085 238.255 272.204 238.536C272.325 238.817 272.496 239.036 272.715 239.191C272.937 239.347 273.197 239.425 273.495 239.425C273.691 239.425 273.869 239.391 274.029 239.322C274.189 239.254 274.324 239.156 274.435 239.028C274.546 238.901 274.624 238.747 274.671 238.568H275.426C275.383 238.858 275.278 239.119 275.109 239.351C274.943 239.581 274.722 239.765 274.448 239.901C274.175 240.035 273.857 240.102 273.495 240.102ZM278.586 240.102C278.113 240.102 277.705 239.998 277.362 239.789C277.021 239.578 276.758 239.284 276.573 238.907C276.39 238.528 276.298 238.087 276.298 237.584C276.298 237.081 276.39 236.638 276.573 236.254C276.758 235.869 277.016 235.568 277.346 235.353C277.679 235.136 278.067 235.027 278.51 235.027C278.765 235.027 279.018 235.07 279.267 235.155C279.517 235.24 279.743 235.379 279.948 235.57C280.153 235.76 280.316 236.011 280.437 236.325C280.558 236.638 280.619 237.023 280.619 237.482V237.801H276.835V237.149H279.852C279.852 236.872 279.797 236.625 279.686 236.408C279.577 236.19 279.422 236.019 279.219 235.893C279.019 235.767 278.782 235.705 278.51 235.705C278.209 235.705 277.949 235.779 277.73 235.928C277.513 236.075 277.345 236.267 277.228 236.504C277.111 236.74 277.052 236.994 277.052 237.264V237.699C277.052 238.07 277.116 238.384 277.244 238.642C277.374 238.897 277.554 239.092 277.784 239.227C278.014 239.359 278.282 239.425 278.586 239.425C278.785 239.425 278.964 239.397 279.123 239.342C279.285 239.284 279.425 239.199 279.542 239.086C279.659 238.971 279.75 238.828 279.814 238.658L280.542 238.862C280.466 239.109 280.337 239.327 280.156 239.514C279.975 239.7 279.751 239.844 279.485 239.949C279.218 240.051 278.919 240.102 278.586 240.102Z" fill="black"/>
<path d="M520.199 270.636H520.727V273.756C520.727 274.034 520.676 274.271 520.574 274.465C520.472 274.66 520.327 274.808 520.141 274.908C519.955 275.009 519.736 275.06 519.483 275.06C519.244 275.06 519.032 275.016 518.846 274.93C518.66 274.842 518.513 274.717 518.407 274.555C518.3 274.393 518.247 274.2 518.247 273.977H518.767C518.767 274.101 518.798 274.209 518.859 274.301C518.921 274.392 519.006 274.463 519.114 274.514C519.222 274.565 519.345 274.591 519.483 274.591C519.635 274.591 519.764 274.559 519.871 274.495C519.977 274.431 520.058 274.337 520.114 274.214C520.17 274.089 520.199 273.936 520.199 273.756V270.636ZM523.048 275.068C522.752 275.068 522.493 274.998 522.27 274.857C522.048 274.717 521.875 274.52 521.75 274.267C521.626 274.014 521.565 273.719 521.565 273.381C521.565 273.04 521.626 272.742 521.75 272.488C521.875 272.234 522.048 272.036 522.27 271.896C522.493 271.755 522.752 271.685 523.048 271.685C523.343 271.685 523.602 271.755 523.823 271.896C524.046 272.036 524.219 272.234 524.343 272.488C524.468 272.742 524.531 273.04 524.531 273.381C524.531 273.719 524.468 274.014 524.343 274.267C524.219 274.52 524.046 274.717 523.823 274.857C523.602 274.998 523.343 275.068 523.048 275.068ZM523.048 274.616C523.272 274.616 523.457 274.559 523.602 274.444C523.746 274.329 523.854 274.178 523.923 273.99C523.993 273.803 524.028 273.599 524.028 273.381C524.028 273.162 523.993 272.958 523.923 272.769C523.854 272.58 523.746 272.428 523.602 272.311C523.457 272.195 523.272 272.136 523.048 272.136C522.823 272.136 522.638 272.195 522.494 272.311C522.349 272.428 522.241 272.58 522.172 272.769C522.102 272.958 522.067 273.162 522.067 273.381C522.067 273.599 522.102 273.803 522.172 273.99C522.241 274.178 522.349 274.329 522.494 274.444C522.638 274.559 522.823 274.616 523.048 274.616ZM527.616 272.46L527.165 272.588C527.136 272.513 527.094 272.44 527.039 272.369C526.985 272.296 526.911 272.237 526.817 272.19C526.724 272.143 526.604 272.119 526.457 272.119C526.257 272.119 526.09 272.165 525.956 272.258C525.824 272.349 525.758 272.464 525.758 272.605C525.758 272.73 525.804 272.829 525.895 272.901C525.986 272.974 526.128 273.034 526.321 273.082L526.807 273.202C527.099 273.273 527.317 273.381 527.461 273.528C527.604 273.673 527.676 273.859 527.676 274.088C527.676 274.276 527.622 274.443 527.514 274.591C527.407 274.739 527.258 274.855 527.067 274.94C526.875 275.026 526.652 275.068 526.398 275.068C526.064 275.068 525.787 274.996 525.569 274.851C525.35 274.706 525.211 274.494 525.153 274.216L525.631 274.097C525.676 274.273 525.762 274.405 525.888 274.493C526.016 274.581 526.183 274.625 526.389 274.625C526.623 274.625 526.809 274.575 526.947 274.476C527.086 274.375 527.156 274.254 527.156 274.114C527.156 274 527.116 273.905 527.037 273.828C526.957 273.75 526.835 273.692 526.67 273.653L526.125 273.526C525.825 273.455 525.605 273.344 525.464 273.195C525.325 273.045 525.256 272.857 525.256 272.631C525.256 272.446 525.307 272.283 525.411 272.141C525.516 271.999 525.659 271.887 525.839 271.806C526.021 271.725 526.227 271.685 526.457 271.685C526.781 271.685 527.035 271.756 527.22 271.898C527.406 272.04 527.538 272.227 527.616 272.46ZM529.805 275.068C529.49 275.068 529.218 274.999 528.989 274.859C528.762 274.719 528.586 274.523 528.463 274.271C528.341 274.018 528.279 273.724 528.279 273.389C528.279 273.054 528.341 272.759 528.463 272.503C528.586 272.246 528.758 272.045 528.978 271.902C529.2 271.757 529.458 271.685 529.754 271.685C529.924 271.685 530.093 271.713 530.259 271.77C530.425 271.827 530.576 271.919 530.713 272.047C530.849 272.173 530.958 272.341 531.039 272.55C531.12 272.759 531.16 273.016 531.16 273.321V273.534H528.637V273.099H530.649C530.649 272.915 530.612 272.75 530.538 272.605C530.466 272.46 530.362 272.346 530.227 272.262C530.093 272.178 529.936 272.136 529.754 272.136C529.554 272.136 529.38 272.186 529.234 272.286C529.089 272.384 528.978 272.511 528.9 272.669C528.821 272.827 528.782 272.996 528.782 273.176V273.466C528.782 273.713 528.825 273.923 528.91 274.094C528.997 274.265 529.117 274.395 529.27 274.484C529.424 274.572 529.602 274.616 529.805 274.616C529.937 274.616 530.056 274.598 530.163 274.561C530.271 274.523 530.364 274.466 530.442 274.391C530.52 274.314 530.581 274.219 530.623 274.105L531.109 274.241C531.058 274.406 530.972 274.551 530.851 274.676C530.73 274.8 530.581 274.896 530.404 274.966C530.226 275.034 530.027 275.068 529.805 275.068ZM531.925 276.227V271.727H532.411V272.247H532.471C532.507 272.19 532.559 272.118 532.624 272.03C532.691 271.94 532.786 271.861 532.909 271.791C533.034 271.72 533.203 271.685 533.417 271.685C533.692 271.685 533.935 271.754 534.145 271.891C534.355 272.029 534.52 272.224 534.637 272.477C534.755 272.73 534.814 273.028 534.814 273.372C534.814 273.719 534.755 274.019 534.637 274.273C534.52 274.526 534.356 274.722 534.147 274.862C533.939 274.999 533.698 275.068 533.425 275.068C533.215 275.068 533.047 275.033 532.92 274.964C532.794 274.893 532.696 274.812 532.628 274.723C532.56 274.632 532.507 274.557 532.471 274.497H532.428V276.227H531.925ZM532.419 273.364C532.419 273.611 532.456 273.829 532.528 274.018C532.6 274.205 532.706 274.352 532.846 274.459C532.985 274.564 533.155 274.616 533.357 274.616C533.567 274.616 533.743 274.561 533.883 274.45C534.025 274.338 534.132 274.187 534.203 273.999C534.275 273.808 534.311 273.597 534.311 273.364C534.311 273.134 534.276 272.926 534.205 272.741C534.135 272.555 534.029 272.408 533.887 272.3C533.747 272.191 533.57 272.136 533.357 272.136C533.152 272.136 532.98 272.188 532.841 272.292C532.702 272.394 532.597 272.538 532.526 272.722C532.455 272.906 532.419 273.119 532.419 273.364ZM536.084 273.031V275H535.581V270.636H536.084V272.239H536.127C536.203 272.07 536.319 271.935 536.472 271.836C536.627 271.735 536.833 271.685 537.09 271.685C537.313 271.685 537.508 271.729 537.676 271.819C537.843 271.907 537.973 272.043 538.066 272.226C538.159 272.408 538.206 272.639 538.206 272.92V275H537.703V272.955C537.703 272.695 537.636 272.494 537.501 272.352C537.368 272.208 537.182 272.136 536.945 272.136C536.78 272.136 536.632 272.171 536.502 272.241C536.373 272.31 536.27 272.412 536.195 272.545C536.121 272.679 536.084 272.841 536.084 273.031ZM543.132 272.46L542.68 272.588C542.652 272.513 542.61 272.44 542.555 272.369C542.501 272.296 542.427 272.237 542.333 272.19C542.239 272.143 542.119 272.119 541.973 272.119C541.773 272.119 541.606 272.165 541.472 272.258C541.34 272.349 541.274 272.464 541.274 272.605C541.274 272.73 541.319 272.829 541.41 272.901C541.501 272.974 541.643 273.034 541.836 273.082L542.322 273.202C542.615 273.273 542.833 273.381 542.976 273.528C543.12 273.673 543.192 273.859 543.192 274.088C543.192 274.276 543.138 274.443 543.03 274.591C542.923 274.739 542.774 274.855 542.582 274.94C542.39 275.026 542.167 275.068 541.913 275.068C541.579 275.068 541.303 274.996 541.084 274.851C540.866 274.706 540.727 274.494 540.669 274.216L541.146 274.097C541.192 274.273 541.278 274.405 541.404 274.493C541.532 274.581 541.699 274.625 541.905 274.625C542.139 274.625 542.325 274.575 542.463 274.476C542.602 274.375 542.672 274.254 542.672 274.114C542.672 274 542.632 273.905 542.552 273.828C542.473 273.75 542.351 273.692 542.186 273.653L541.64 273.526C541.341 273.455 541.121 273.344 540.98 273.195C540.841 273.045 540.771 272.857 540.771 272.631C540.771 272.446 540.823 272.283 540.927 272.141C541.032 271.999 541.175 271.887 541.355 271.806C541.537 271.725 541.743 271.685 541.973 271.685C542.297 271.685 542.551 271.756 542.736 271.898C542.922 272.04 543.054 272.227 543.132 272.46ZM543.949 275V271.727H544.434V272.239H544.477C544.545 272.064 544.655 271.928 544.807 271.832C544.959 271.734 545.142 271.685 545.355 271.685C545.571 271.685 545.75 271.734 545.894 271.832C546.039 271.928 546.152 272.064 546.233 272.239H546.267C546.35 272.07 546.476 271.935 546.644 271.836C546.811 271.735 547.012 271.685 547.247 271.685C547.539 271.685 547.779 271.776 547.965 271.96C548.151 272.141 548.244 272.425 548.244 272.81V275H547.741V272.81C547.741 272.568 547.675 272.396 547.543 272.292C547.411 272.188 547.255 272.136 547.076 272.136C546.846 272.136 546.668 272.206 546.542 272.345C546.415 272.483 546.352 272.658 546.352 272.869V275H545.841V272.759C545.841 272.572 545.78 272.423 545.659 272.309C545.539 272.194 545.383 272.136 545.193 272.136C545.062 272.136 544.94 272.171 544.826 272.241C544.714 272.31 544.623 272.407 544.554 272.531C544.485 272.653 544.451 272.794 544.451 272.955V275H543.949ZM549.163 275V271.727H549.666V275H549.163ZM549.419 271.182C549.321 271.182 549.237 271.148 549.165 271.082C549.096 271.015 549.061 270.935 549.061 270.841C549.061 270.747 549.096 270.667 549.165 270.6C549.237 270.533 549.321 270.5 549.419 270.5C549.517 270.5 549.601 270.533 549.67 270.6C549.741 270.667 549.777 270.747 549.777 270.841C549.777 270.935 549.741 271.015 549.67 271.082C549.601 271.148 549.517 271.182 549.419 271.182ZM552.01 271.727V272.153H550.314V271.727H552.01ZM550.809 270.943H551.312V274.062C551.312 274.205 551.332 274.311 551.373 274.382C551.416 274.452 551.47 274.499 551.535 274.523C551.602 274.545 551.672 274.557 551.746 274.557C551.802 274.557 551.847 274.554 551.883 274.548C551.918 274.541 551.947 274.536 551.968 274.531L552.07 274.983C552.036 274.996 551.988 275.009 551.927 275.021C551.866 275.036 551.789 275.043 551.695 275.043C551.553 275.043 551.414 275.012 551.278 274.951C551.143 274.89 551.03 274.797 550.941 274.672C550.853 274.547 550.809 274.389 550.809 274.199V270.943ZM553.34 273.031V275H552.837V270.636H553.34V272.239H553.383C553.459 272.07 553.574 271.935 553.728 271.836C553.883 271.735 554.089 271.685 554.346 271.685C554.569 271.685 554.764 271.729 554.932 271.819C555.099 271.907 555.229 272.043 555.322 272.226C555.415 272.408 555.462 272.639 555.462 272.92V275H554.959V272.955C554.959 272.695 554.892 272.494 554.757 272.352C554.623 272.208 554.438 272.136 554.201 272.136C554.036 272.136 553.888 272.171 553.758 272.241C553.628 272.31 553.526 272.412 553.451 272.545C553.377 272.679 553.34 272.841 553.34 273.031Z" fill="#375DED"/>
<path d="M521.875 319H520.528V314.636H521.935C522.358 314.636 522.72 314.724 523.021 314.898C523.322 315.072 523.553 315.321 523.714 315.646C523.874 315.97 523.955 316.358 523.955 316.81C523.955 317.264 523.874 317.656 523.712 317.984C523.55 318.31 523.314 318.562 523.004 318.738C522.695 318.913 522.318 319 521.875 319ZM521.057 318.531H521.841C522.202 318.531 522.501 318.462 522.738 318.322C522.975 318.183 523.152 317.985 523.268 317.728C523.385 317.471 523.443 317.165 523.443 316.81C523.443 316.457 523.386 316.154 523.271 315.9C523.156 315.644 522.984 315.448 522.755 315.312C522.526 315.174 522.241 315.105 521.901 315.105H521.057V318.531ZM526.145 319.068C525.83 319.068 525.558 318.999 525.329 318.859C525.102 318.719 524.926 318.523 524.803 318.271C524.68 318.018 524.619 317.724 524.619 317.389C524.619 317.054 524.68 316.759 524.803 316.503C524.926 316.246 525.098 316.045 525.318 315.902C525.54 315.757 525.798 315.685 526.094 315.685C526.264 315.685 526.433 315.713 526.599 315.77C526.765 315.827 526.916 315.919 527.053 316.047C527.189 316.173 527.298 316.341 527.379 316.55C527.46 316.759 527.5 317.016 527.5 317.321V317.534H524.977V317.099H526.989C526.989 316.915 526.952 316.75 526.878 316.605C526.805 316.46 526.702 316.346 526.567 316.262C526.433 316.178 526.276 316.136 526.094 316.136C525.893 316.136 525.72 316.186 525.574 316.286C525.429 316.384 525.317 316.511 525.239 316.669C525.161 316.827 525.122 316.996 525.122 317.176V317.466C525.122 317.713 525.165 317.923 525.25 318.094C525.337 318.265 525.457 318.395 525.61 318.484C525.763 318.572 525.942 318.616 526.145 318.616C526.277 318.616 526.396 318.598 526.503 318.561C526.611 318.523 526.704 318.466 526.782 318.391C526.86 318.314 526.92 318.219 526.963 318.105L527.449 318.241C527.398 318.406 527.312 318.551 527.191 318.676C527.07 318.8 526.921 318.896 526.744 318.966C526.566 319.034 526.366 319.068 526.145 319.068ZM528.265 319V315.727H528.751V316.222H528.785C528.844 316.06 528.952 315.928 529.109 315.827C529.265 315.727 529.441 315.676 529.637 315.676C529.674 315.676 529.72 315.677 529.776 315.678C529.831 315.68 529.873 315.682 529.901 315.685V316.196C529.884 316.192 529.845 316.185 529.784 316.177C529.724 316.167 529.661 316.162 529.594 316.162C529.435 316.162 529.293 316.195 529.168 316.262C529.045 316.327 528.947 316.418 528.874 316.535C528.803 316.65 528.768 316.781 528.768 316.929V319H528.265ZM531.77 319.068C531.455 319.068 531.183 318.999 530.954 318.859C530.727 318.719 530.551 318.523 530.428 318.271C530.305 318.018 530.244 317.724 530.244 317.389C530.244 317.054 530.305 316.759 530.428 316.503C530.551 316.246 530.723 316.045 530.943 315.902C531.165 315.757 531.423 315.685 531.719 315.685C531.889 315.685 532.058 315.713 532.224 315.77C532.39 315.827 532.541 315.919 532.678 316.047C532.814 316.173 532.923 316.341 533.004 316.55C533.085 316.759 533.125 317.016 533.125 317.321V317.534H530.602V317.099H532.614C532.614 316.915 532.577 316.75 532.503 316.605C532.43 316.46 532.327 316.346 532.192 316.262C532.058 316.178 531.901 316.136 531.719 316.136C531.518 316.136 531.345 316.186 531.199 316.286C531.054 316.384 530.942 316.511 530.864 316.669C530.786 316.827 530.747 316.996 530.747 317.176V317.466C530.747 317.713 530.79 317.923 530.875 318.094C530.962 318.265 531.082 318.395 531.235 318.484C531.388 318.572 531.567 318.616 531.77 318.616C531.902 318.616 532.021 318.598 532.128 318.561C532.236 318.523 532.329 318.466 532.407 318.391C532.485 318.314 532.545 318.219 532.588 318.105L533.074 318.241C533.023 318.406 532.937 318.551 532.816 318.676C532.695 318.8 532.546 318.896 532.369 318.966C532.191 319.034 531.991 319.068 531.77 319.068ZM534.393 317.031V319H533.89V315.727H534.376V316.239H534.418C534.495 316.072 534.612 315.939 534.768 315.838C534.924 315.736 535.126 315.685 535.373 315.685C535.594 315.685 535.788 315.73 535.955 315.821C536.121 315.911 536.25 316.047 536.342 316.23C536.435 316.412 536.481 316.642 536.481 316.92V319H535.978V316.955C535.978 316.697 535.911 316.497 535.778 316.354C535.644 316.209 535.461 316.136 535.228 316.136C535.067 316.136 534.924 316.171 534.798 316.241C534.673 316.31 534.574 316.412 534.501 316.545C534.429 316.679 534.393 316.841 534.393 317.031ZM542.667 316H542.138C542.107 315.848 542.052 315.714 541.974 315.599C541.898 315.484 541.804 315.388 541.693 315.31C541.584 315.23 541.462 315.17 541.329 315.131C541.195 315.091 541.056 315.071 540.911 315.071C540.647 315.071 540.407 315.138 540.193 315.271C539.98 315.405 539.81 315.602 539.684 315.862C539.559 316.121 539.496 316.44 539.496 316.818C539.496 317.196 539.559 317.515 539.684 317.775C539.81 318.035 539.98 318.232 540.193 318.365C540.407 318.499 540.647 318.565 540.911 318.565C541.056 318.565 541.195 318.545 541.329 318.506C541.462 318.466 541.584 318.407 541.693 318.329C541.804 318.249 541.898 318.152 541.974 318.037C542.052 317.92 542.107 317.787 542.138 317.636H542.667C542.627 317.859 542.555 318.059 542.449 318.235C542.344 318.411 542.214 318.561 542.057 318.685C541.901 318.807 541.726 318.9 541.531 318.964C541.338 319.028 541.131 319.06 540.911 319.06C540.539 319.06 540.208 318.969 539.918 318.787C539.628 318.605 539.4 318.347 539.234 318.011C539.068 317.676 538.985 317.278 538.985 316.818C538.985 316.358 539.068 315.96 539.234 315.625C539.4 315.29 539.628 315.031 539.918 314.849C540.208 314.668 540.539 314.577 540.911 314.577C541.131 314.577 541.338 314.609 541.531 314.673C541.726 314.737 541.901 314.83 542.057 314.954C542.214 315.076 542.344 315.225 542.449 315.401C542.555 315.576 542.627 315.776 542.667 316ZM543.955 314.636V319H543.452V314.636H543.955ZM545.839 319.077C545.632 319.077 545.444 319.038 545.275 318.96C545.106 318.88 544.971 318.766 544.872 318.616C544.773 318.466 544.723 318.284 544.723 318.071C544.723 317.884 544.76 317.732 544.834 317.615C544.907 317.497 545.006 317.405 545.13 317.338C545.253 317.271 545.39 317.222 545.539 317.189C545.689 317.155 545.841 317.128 545.993 317.108C546.192 317.082 546.353 317.063 546.476 317.05C546.601 317.036 546.692 317.013 546.749 316.98C546.807 316.947 546.836 316.891 546.836 316.81V316.793C546.836 316.582 546.779 316.419 546.664 316.303C546.55 316.186 546.378 316.128 546.146 316.128C545.906 316.128 545.718 316.18 545.581 316.286C545.445 316.391 545.349 316.503 545.294 316.622L544.817 316.452C544.902 316.253 545.015 316.098 545.157 315.987C545.301 315.875 545.457 315.797 545.626 315.753C545.797 315.707 545.964 315.685 546.129 315.685C546.234 315.685 546.355 315.697 546.491 315.723C546.629 315.747 546.762 315.798 546.89 315.874C547.019 315.951 547.126 316.067 547.211 316.222C547.297 316.376 547.339 316.584 547.339 316.844V319H546.836V318.557H546.811C546.777 318.628 546.72 318.704 546.64 318.785C546.561 318.866 546.455 318.935 546.323 318.991C546.191 319.048 546.03 319.077 545.839 319.077ZM545.916 318.625C546.115 318.625 546.282 318.586 546.419 318.508C546.557 318.43 546.66 318.329 546.73 318.205C546.801 318.082 546.836 317.952 546.836 317.815V317.355C546.815 317.381 546.768 317.404 546.696 317.425C546.625 317.445 546.542 317.463 546.449 317.479C546.356 317.493 546.266 317.506 546.178 317.517C546.091 317.527 546.021 317.536 545.967 317.543C545.836 317.56 545.714 317.587 545.601 317.626C545.488 317.663 545.398 317.719 545.328 317.794C545.26 317.868 545.226 317.969 545.226 318.097C545.226 318.271 545.29 318.403 545.42 318.493C545.55 318.581 545.716 318.625 545.916 318.625ZM548.257 319V315.727H548.743V316.222H548.777C548.837 316.06 548.945 315.928 549.101 315.827C549.257 315.727 549.433 315.676 549.629 315.676C549.666 315.676 549.712 315.677 549.768 315.678C549.823 315.68 549.865 315.682 549.893 315.685V316.196C549.876 316.192 549.837 316.185 549.776 316.177C549.717 316.167 549.653 316.162 549.587 316.162C549.428 316.162 549.286 316.195 549.161 316.262C549.037 316.327 548.939 316.418 548.866 316.535C548.795 316.65 548.76 316.781 548.76 316.929V319H548.257ZM550.958 317.807L550.95 317.185H551.052L552.484 315.727H553.106L551.58 317.27H551.538L550.958 317.807ZM550.49 319V314.636H550.992V319H550.49ZM552.569 319L551.291 317.381L551.649 317.031L553.208 319H552.569ZM554.991 319.068C554.675 319.068 554.403 318.999 554.175 318.859C553.947 318.719 553.772 318.523 553.648 318.271C553.526 318.018 553.465 317.724 553.465 317.389C553.465 317.054 553.526 316.759 553.648 316.503C553.772 316.246 553.944 316.045 554.164 315.902C554.385 315.757 554.644 315.685 554.939 315.685C555.11 315.685 555.278 315.713 555.444 315.77C555.611 315.827 555.762 315.919 555.898 316.047C556.035 316.173 556.143 316.341 556.224 316.55C556.305 316.759 556.346 317.016 556.346 317.321V317.534H553.823V317.099H555.834C555.834 316.915 555.797 316.75 555.724 316.605C555.651 316.46 555.547 316.346 555.412 316.262C555.279 316.178 555.121 316.136 554.939 316.136C554.739 316.136 554.566 316.186 554.42 316.286C554.275 316.384 554.163 316.511 554.085 316.669C554.007 316.827 553.968 316.996 553.968 317.176V317.466C553.968 317.713 554.01 317.923 554.096 318.094C554.182 318.265 554.302 318.395 554.456 318.484C554.609 318.572 554.787 318.616 554.991 318.616C555.123 318.616 555.242 318.598 555.349 318.561C555.456 318.523 555.55 318.466 555.628 318.391C555.706 318.314 555.766 318.219 555.809 318.105L556.295 318.241C556.243 318.406 556.157 318.551 556.037 318.676C555.916 318.8 555.767 318.896 555.589 318.966C555.412 319.034 555.212 319.068 554.991 319.068Z" fill="#375DED"/>
<line x1="569" y1="272.5" x2="604" y2="272.5" stroke="#375DED"/>
<line x1="569" y1="316.5" x2="604" y2="316.5" stroke="#375DED"/>
<path d="M505.375 272.5C505.823 272.5 506.252 272.322 506.568 272.006C506.885 271.689 507.062 271.26 507.062 270.812C507.062 270.365 506.885 269.936 506.568 269.619C506.252 269.303 505.823 269.125 505.375 269.125C504.927 269.125 504.498 269.303 504.182 269.619C503.865 269.936 503.688 270.365 503.688 270.812C503.688 271.26 503.865 271.689 504.182 272.006C504.498 272.322 504.927 272.5 505.375 272.5ZM502.562 275.875C502.562 275.875 502 275.875 502 275.312C502 274.75 502.562 273.062 505.375 273.062C508.188 273.062 508.75 274.75 508.75 275.312C508.75 275.875 508.188 275.875 508.188 275.875H502.562ZM508.188 269.969C508.188 269.894 508.217 269.823 508.27 269.77C508.323 269.717 508.394 269.688 508.469 269.688H510.719C510.793 269.688 510.865 269.717 510.918 269.77C510.97 269.823 511 269.894 511 269.969C511 270.043 510.97 270.115 510.918 270.168C510.865 270.22 510.793 270.25 510.719 270.25H508.469C508.394 270.25 508.323 270.22 508.27 270.168C508.217 270.115 508.188 270.043 508.188 269.969ZM508.469 271.375C508.394 271.375 508.323 271.405 508.27 271.457C508.217 271.51 508.188 271.582 508.188 271.656C508.188 271.731 508.217 271.802 508.27 271.855C508.323 271.908 508.394 271.938 508.469 271.938H510.719C510.793 271.938 510.865 271.908 510.918 271.855C510.97 271.802 511 271.731 511 271.656C511 271.582 510.97 271.51 510.918 271.457C510.865 271.405 510.793 271.375 510.719 271.375H508.469ZM509.594 273.062C509.519 273.062 509.448 273.092 509.395 273.145C509.342 273.198 509.312 273.269 509.312 273.344C509.312 273.418 509.342 273.49 509.395 273.543C509.448 273.595 509.519 273.625 509.594 273.625H510.719C510.793 273.625 510.865 273.595 510.918 273.543C510.97 273.49 511 273.418 511 273.344C511 273.269 510.97 273.198 510.918 273.145C510.865 273.092 510.793 273.062 510.719 273.062H509.594ZM509.594 274.75C509.519 274.75 509.448 274.78 509.395 274.832C509.342 274.885 509.312 274.957 509.312 275.031C509.312 275.106 509.342 275.177 509.395 275.23C509.448 275.283 509.519 275.312 509.594 275.312H510.719C510.793 275.312 510.865 275.283 510.918 275.23C510.97 275.177 511 275.106 511 275.031C511 274.957 510.97 274.885 510.918 274.832C510.865 274.78 510.793 274.75 510.719 274.75H509.594Z" fill="#375DED"/>
<path d="M505.375 317.5C505.823 317.5 506.252 317.322 506.568 317.006C506.885 316.689 507.062 316.26 507.062 315.812C507.062 315.365 506.885 314.936 506.568 314.619C506.252 314.303 505.823 314.125 505.375 314.125C504.927 314.125 504.498 314.303 504.182 314.619C503.865 314.936 503.688 315.365 503.688 315.812C503.688 316.26 503.865 316.689 504.182 317.006C504.498 317.322 504.927 317.5 505.375 317.5ZM502.562 320.875C502.562 320.875 502 320.875 502 320.312C502 319.75 502.562 318.062 505.375 318.062C508.188 318.062 508.75 319.75 508.75 320.312C508.75 320.875 508.188 320.875 508.188 320.875H502.562ZM508.188 314.969C508.188 314.894 508.217 314.823 508.27 314.77C508.323 314.717 508.394 314.688 508.469 314.688H510.719C510.793 314.688 510.865 314.717 510.918 314.77C510.97 314.823 511 314.894 511 314.969C511 315.043 510.97 315.115 510.918 315.168C510.865 315.22 510.793 315.25 510.719 315.25H508.469C508.394 315.25 508.323 315.22 508.27 315.168C508.217 315.115 508.188 315.043 508.188 314.969ZM508.469 316.375C508.394 316.375 508.323 316.405 508.27 316.457C508.217 316.51 508.188 316.582 508.188 316.656C508.188 316.731 508.217 316.802 508.27 316.855C508.323 316.908 508.394 316.938 508.469 316.938H510.719C510.793 316.938 510.865 316.908 510.918 316.855C510.97 316.802 511 316.731 511 316.656C511 316.582 510.97 316.51 510.918 316.457C510.865 316.405 510.793 316.375 510.719 316.375H508.469ZM509.594 318.062C509.519 318.062 509.448 318.092 509.395 318.145C509.342 318.198 509.312 318.269 509.312 318.344C509.312 318.418 509.342 318.49 509.395 318.543C509.448 318.595 509.519 318.625 509.594 318.625H510.719C510.793 318.625 510.865 318.595 510.918 318.543C510.97 318.49 511 318.418 511 318.344C511 318.269 510.97 318.198 510.918 318.145C510.865 318.092 510.793 318.062 510.719 318.062H509.594ZM509.594 319.75C509.519 319.75 509.448 319.78 509.395 319.832C509.342 319.885 509.312 319.957 509.312 320.031C509.312 320.106 509.342 320.177 509.395 320.23C509.448 320.283 509.519 320.312 509.594 320.312H510.719C510.793 320.312 510.865 320.283 510.918 320.23C510.97 320.177 511 320.106 511 320.031C511 319.957 510.97 319.885 510.918 319.832C510.865 319.78 510.793 319.75 510.719 319.75H509.594Z" fill="#375DED"/>
</svg>
