<svg width="22" height="22" viewBox="0 0 22 22" fill="none" xmlns="http://www.w3.org/2000/svg">
<path d="M3.66797 17.4167V15.5833H5.5013V9.16668C5.5013 7.89862 5.88325 6.7757 6.64714 5.79793C7.41102 4.80487 8.40408 4.15556 9.6263 3.85001V3.20834C9.6263 2.8264 9.75616 2.50557 10.0159 2.24584C10.2909 1.97084 10.6194 1.83334 11.0013 1.83334C11.3832 1.83334 11.7041 1.97084 11.9638 2.24584C12.2388 2.50557 12.3763 2.8264 12.3763 3.20834V3.85001C13.5985 4.15556 14.5916 4.80487 15.3555 5.79793C16.1194 6.7757 16.5013 7.89862 16.5013 9.16668V15.5833H18.3346V17.4167H3.66797ZM11.0013 20.1667C10.4971 20.1667 10.0617 19.991 9.69505 19.6396C9.34366 19.2729 9.16797 18.8375 9.16797 18.3333H12.8346C12.8346 18.8375 12.6513 19.2729 12.2846 19.6396C11.9332 19.991 11.5055 20.1667 11.0013 20.1667ZM7.33464 15.5833H14.668V9.16668C14.668 8.15834 14.3089 7.29515 13.5909 6.57709C12.8728 5.85904 12.0096 5.50001 11.0013 5.50001C9.99297 5.50001 9.12978 5.85904 8.41172 6.57709C7.69366 7.29515 7.33464 8.15834 7.33464 9.16668V15.5833Z" fill="#7E7E7F"/>
</svg>
