<svg width="24" height="24" viewBox="0 0 24 24" fill="none" xmlns="http://www.w3.org/2000/svg">
<path d="M14.0449 14.3013C14.0449 14.7259 13.7003 15.0705 13.2756 15.0705H7.1218C6.69718 15.0705 6.35256 14.7259 6.35256 14.3013C6.35256 13.8767 6.69718 13.5321 7.1218 13.5321H13.2756C13.7003 13.5321 14.0449 13.8767 14.0449 14.3013ZM10.1987 16.609H7.1218C6.69718 16.609 6.35256 16.9536 6.35256 17.3782C6.35256 17.8028 6.69718 18.1474 7.1218 18.1474H10.1987C10.6233 18.1474 10.9679 17.8028 10.9679 17.3782C10.9679 16.9536 10.6233 16.609 10.1987 16.609ZM22.25 11.7372V19.4295C22.25 20.9854 20.9854 22.25 19.4295 22.25H6.09615C3.61615 22.25 2.25 20.8838 2.25 18.4038V6.09615C2.25 3.61615 3.61615 2.25 6.09615 2.25H14.3013C16.7813 2.25 18.1474 3.61615 18.1474 6.09615V9.42949H19.9423C21.2151 9.42949 22.25 10.4644 22.25 11.7372ZM16.9177 20.7115C16.7208 20.3269 16.609 19.891 16.609 19.4295V6.09615C16.609 4.47872 15.9187 3.78846 14.3013 3.78846H6.09615C4.47872 3.78846 3.78846 4.47872 3.78846 6.09615V18.4038C3.78846 20.0213 4.47872 20.7115 6.09615 20.7115H16.9177ZM20.7115 11.7372C20.7115 11.3126 20.3669 10.9679 19.9423 10.9679H18.1474V19.4295C18.1474 20.1362 18.7228 20.7115 19.4295 20.7115C20.1362 20.7115 20.7115 20.1362 20.7115 19.4295V11.7372ZM7.77102 9.28175L8.72386 9.52789C8.88078 9.56892 8.99054 9.72278 8.99054 9.90124C8.99054 10.0448 8.9208 10.1383 8.8808 10.1803C8.83567 10.2275 8.75771 10.2839 8.64899 10.2839H8.23357C8.06332 10.2839 7.91461 10.1341 7.89409 9.94431C7.84794 9.52175 7.47362 9.21722 7.04592 9.26235C6.62336 9.30747 6.3187 9.68789 6.36383 10.1105C6.44691 10.8817 6.97001 11.4972 7.65822 11.7239V11.7372C7.65822 12.1618 8.00283 12.5064 8.42745 12.5064C8.85206 12.5064 9.19668 12.1618 9.19668 11.7372V11.73C9.49104 11.6377 9.76283 11.4808 9.98744 11.249C10.3362 10.8859 10.5279 10.408 10.5279 9.90237C10.5279 9.02442 9.94644 8.25925 9.11054 8.03976L8.15664 7.79362C8.06433 7.769 8.00485 7.71049 7.9669 7.66228C7.91869 7.5987 7.89002 7.51053 7.89002 7.42027C7.89002 7.20899 8.04279 7.03666 8.23151 7.03666H8.64692C8.81923 7.03666 8.96589 7.18236 8.9864 7.3762C9.03153 7.79877 9.40284 8.10022 9.83464 8.05817C10.2572 8.01304 10.5618 7.63263 10.5167 7.21006C10.4326 6.42955 9.89715 5.80896 9.19561 5.58947V5.58434C9.19561 5.15972 8.851 4.8151 8.42638 4.8151C8.00177 4.8151 7.65715 5.15972 7.65715 5.58434V5.59973C6.90228 5.84897 6.35156 6.56591 6.35156 7.42027C6.35156 7.84591 6.49001 8.26234 6.73925 8.58952C6.99566 8.92901 7.36076 9.17508 7.77102 9.28175Z" fill="#375DED"/>
</svg>
